<svg xmlns="http://www.w3.org/2000/svg" viewBox="0 0 119.42 120.39"><defs><style>.cls-1{fill:#ef7e25;}.cls-2{fill:#fff;}</style></defs><title>Asset 2logo</title><g id="Layer_2" data-name="Layer 2"><g id="Layer_1-2" data-name="Layer 1"><circle class="cls-1" cx="58.5" cy="61.9" r="52.24"/><path class="cls-1" d="M118,61.46c-.08.55,1.17.35,1.4.44C119.1,61,117.7,61.49,118,61.46Z"/><polygon class="cls-1" points="114.41 52.85 114.94 52.92 113.5 51.87 114.41 52.85"/><path class="cls-1" d="M112.63,44.94c-1.84,1.34,1.07,2.73.7,4.34l-.42.33,1.85.27C114,48.19,112.38,46.29,112.63,44.94Z"/><path class="cls-1" d="M115.44,39.15c-.67.58-1-.68.14,1.12a2.33,2.33,0,0,1,.13-.27A4,4,0,0,1,115.44,39.15Z"/><path class="cls-1" d="M115.71,40c.37.85.44-.82,0,0Z"/><path class="cls-1" d="M113.61,36.28l1.2.79c.34-.43,0-1.47.47-1.25C114.36,34.84,114,35.3,113.61,36.28Z"/><path class="cls-1" d="M111.71,35.93l.55.41C112.4,36.16,112.39,36,111.71,35.93Z"/><path class="cls-1" d="M113.43,37.25l-1.17-.91c-.24.31-.86.62.47.44C112.11,37,112.78,36.93,113.43,37.25Z"/><path class="cls-1" d="M113.45,38.05c-.13.78-.12,1.69-1.24.89.56,1,1.12,1.26,1.45,1S114.08,39,113.45,38.05Z"/><path class="cls-1" d="M110.38,45.22c-.11.32-.21.63-.35,1l.86.47c-.21-.12-.17-.54-.16-.9S110.68,45.1,110.38,45.22Z"/><path class="cls-1" d="M111,29.08c-.42.18-.82,1-1.27,1.37l.91.49C110.63,30.39,110.42,29.49,111,29.08Z"/><path class="cls-1" d="M109.69,30.45l-1.34-.7C108.88,30.79,109.3,30.78,109.69,30.45Z"/><path class="cls-1" d="M109.48,36.79c.79.38,1.59.77,2.39,1.18-.87-.53-1.73-1-2.58-1.52Z"/><polygon class="cls-1" points="108.07 24.77 109.38 24.77 107.28 24.62 108.07 24.77"/><path class="cls-1" d="M105.82,22.17c1.05-.13.6-1.54,1.42-1.43a5.21,5.21,0,0,0-2.86-.81A2.46,2.46,0,0,1,105.82,22.17Z"/><path class="cls-1" d="M102.85,19.71a6.92,6.92,0,0,0,1.53.22A3.54,3.54,0,0,0,102.85,19.71Z"/><path class="cls-1" d="M107.3,27.78a1.85,1.85,0,0,0,.44-1.59L107,27.36Z"/><path class="cls-1" d="M107,27.4l0,0-.61-.94Z"/><path class="cls-1" d="M107.37,27.89l-.07-.11C107.23,27.89,107.21,27.94,107.37,27.89Z"/><path class="cls-1" d="M109,33.32c-1-.3-2.45-1.18-2.64.62C107.37,33.94,107.47,32.9,109,33.32Z"/><path class="cls-1" d="M106.43,29.3c.19.42.32.87.47,1.3.28-.2.56-.68,1-.56C107.44,29.79,107,29.53,106.43,29.3Z"/><polygon class="cls-1" points="105.7 29.01 106.43 29.3 106.22 28.84 105.7 29.01"/><path class="cls-1" d="M103.59,22.31a3.15,3.15,0,0,1-1.86-1,7.93,7.93,0,0,0,1.32,2C103.42,23.14,104.2,22.92,103.59,22.31Z"/><path class="cls-1" d="M105.23,24.81a.84.84,0,0,0-.14-.06C105.06,24.88,105.07,25,105.23,24.81Z"/><path class="cls-1" d="M96.48,16.28l-.06.26.16-.15Z"/><path class="cls-1" d="M103,23.57c.21.6.68.66,1.21.66a5.54,5.54,0,0,1-1.11-.91C102.88,23.4,102.78,23.47,103,23.57Z"/><path class="cls-1" d="M101,18.63c0,.41.15.81.24,1.24C101.32,19.35,101.3,18.47,101,18.63Z"/><path class="cls-1" d="M105.25,24.36l.1,0C105.44,24.07,105.35,24.17,105.25,24.36Z"/><path class="cls-1" d="M105.25,24.36a3.26,3.26,0,0,0-1.09-.13,3.92,3.92,0,0,0,.93.52A1.61,1.61,0,0,1,105.25,24.36Z"/><path class="cls-1" d="M89.71,21.45a1.83,1.83,0,0,1,1.61-.58,1.22,1.22,0,0,1,.75.41,1.73,1.73,0,0,1,.32,1c1.45.11,3.5-3.3,4-5.77-.37.38-.65.7-2.16.46,0,.74,1.23,3-.27,3.13-.81-.35-1-.61-1-1a4.64,4.64,0,0,0,0-1.24c-.38,1.57-3,.43-4,2.42l1.57.22C90.32,20.85,89.59,21,89.71,21.45Z"/><path class="cls-1" d="M98.26,18.37l.52.27a5.16,5.16,0,0,1-.38-2.52c-1.09-.2-1.51,0-1.82.27l1.94,2Z"/><path class="cls-1" d="M100.61,20.36c-1.2.56-2.57.12-3,1.64,1.18,1,1.52,0,2.58.33-2-1.69,1,.06.28-1.85a4.92,4.92,0,0,1,1.21.82,9,9,0,0,1-.51-1.43V20h0c0,.2-.08.3-.1.13,0,0,0,0-.06,0a2.4,2.4,0,0,1-.42.26c-.34-.76.15-.33.42-.26a.91.91,0,0,0,.16-.11s0,0,0,0c-.76-.51-1.63-.89-2.43-1.33A7.36,7.36,0,0,0,100.61,20.36Z"/><path class="cls-1" d="M103.29,34.26a.58.58,0,0,1,.22-.22C103.29,34,103.17,34,103.29,34.26Z"/><path class="cls-1" d="M103.44,33c.24.05.75-.1.94.46-.07.63-.53.32-.87.57.46.11,1.41.55,1.38-.71l-.24-.06c-.12-1.06.54-3.07.77-3A12.72,12.72,0,0,0,103.44,33Z"/><path class="cls-1" d="M102.14,26.88a17.4,17.4,0,0,0-1.83-1.19l-.15,1.5.48-.47C101.18,27.78,101.64,27.09,102.14,26.88Z"/><path class="cls-1" d="M96.7,15.62l1.1-.85c-.73.18-1.51.45-2.24.68Z"/><polygon class="cls-1" points="94.28 13.99 95.08 13.11 94.03 13.22 94.28 13.99"/><path class="cls-1" d="M19.72,84.85l.54.25A1.69,1.69,0,0,0,19.72,84.85Z"/><path class="cls-1" d="M18.08,81.66l-.56.18C17.88,81.85,18.12,81.8,18.08,81.66Z"/><path class="cls-1" d="M27.1,11.16c-1.39-.45-3.3-1.29-2.45-.24l1,.93A1.74,1.74,0,0,1,27.1,11.16Z"/><path class="cls-1" d="M7.57,51.68,8,51.52l-1.08-.81C7.12,51,7.31,51.33,7.57,51.68Z"/><path class="cls-1" d="M12.78,53.25l-1,.84A3.49,3.49,0,0,0,12.78,53.25Z"/><path class="cls-1" d="M33.78,98c.4-.25.79-.5,1.2-.78C34.27,96.71,34.21,97.46,33.78,98Z"/><path class="cls-1" d="M66.94,3.19a4.83,4.83,0,0,0-2-1.08C65.91,3,66.53,4.22,66.94,3.19Z"/><path class="cls-1" d="M6.88,90.32a.94.94,0,0,0,1,.09C7.46,90.17,7.12,90.09,6.88,90.32Z"/><path class="cls-1" d="M62.6,2c.14.13.28.21.42.32a3.61,3.61,0,0,1,2-.16A1.54,1.54,0,0,0,62.6,2Z"/><path class="cls-1" d="M95.66,87a1.29,1.29,0,0,1,.21,0C95.73,86.79,95.69,86.85,95.66,87Z"/><path class="cls-1" d="M115.88,69.61a5.43,5.43,0,0,1-.06,1.09A1.71,1.71,0,0,0,115.88,69.61Z"/><path class="cls-1" d="M84.52,7.43c.6.19.15-.09,0,0Z"/><path class="cls-1" d="M84.79,13.28a1.06,1.06,0,0,0-.5.46A1.33,1.33,0,0,1,84.79,13.28Z"/><path class="cls-1" d="M56.71,9.94h-.05C56.83,10.18,56.8,10.14,56.71,9.94Z"/><path class="cls-1" d="M85.1,8.36a3.15,3.15,0,0,0-.54-.69A2.88,2.88,0,0,0,85.1,8.36Z"/><path class="cls-1" d="M85.26,7.76l.43.35C85.86,8,85.86,7.8,85.26,7.76Z"/><path class="cls-1" d="M83.7,7.11a3.19,3.19,0,0,1,.86.56c-.08-.13-.09-.22,0-.24C84.34,7.37,84.1,7.28,83.7,7.11Z"/><path class="cls-1" d="M64.84,109.73a.9.9,0,0,1,.12.1C65.38,109.22,65.18,109.34,64.84,109.73Z"/><path class="cls-1" d="M24.67,30.51s0-.06,0-.08l-.09,0Z"/><path class="cls-1" d="M24.26,32.41c-.74-1.59-.3-1.79.32-2-1-.71-2.09-1.41-3.16-2.1C22.34,29.73,23.28,31.09,24.26,32.41Z"/><path class="cls-1" d="M25.06,91.54l.11-1.61c2.39-.25,2.49.86,3-1a2.16,2.16,0,0,1-1.88.68,2.36,2.36,0,0,1-1.27-.88c-.73-.81-1.46-1.61-3.17-.49l.24-1.11c.1.19.32.08.41.28.72-2.26-3.07.78-3.65-1.26-.1-.77.17-1.47.83-1.32L18,84.05a.36.36,0,0,1,.68-.25c-.48-.61-.87-1.28-1.32-1.93l.12,0a11.45,11.45,0,0,1-2.5-.47c.27-.79.53.1.92-.25-.48-.26-1-.52-1.47-.81a1.24,1.24,0,0,1,1.38-.37,1.48,1.48,0,0,1,1,.92c1.59-1.38,1.25-1.48.63-1.69s-1.42-.56-.74-2.17l.89.92c1.9-1.53.82-2.06,1.74-3.67-.3.24-.95,1.11-1.68,1.84s-1.56,1.31-2.28.82c.16-.47.11-1-.91-1.45,1.38-.44.87-1,.56-1.89L17,73.13c-.77-.77-1.7-.46-2.68-.82-.1-1.12,1.29-1.63,2.5-2.12,0-.85-.52-.46-1.15-.08s-1.34.75-1.67-.25a2.33,2.33,0,0,0-.2-2c-.34-.61-1-1.24-1.55-2.1.61-1.1,1.18.09,1.71-.33l-1.57-.81c0-.23.5-.18.73-.16-.63-.75-1.91,0-2.5-1.21-1.05-.14-.36-.84.4-1.63s1.53-1.69.37-2.53c.56-.35,1.16.25,1.91.18-.74-1.08-1-1.56-1.34-2s-.66-.83-1.58-1.86l1.47-1.31c-1.59.87-3.06-.78-4.23-2.41a12.3,12.3,0,0,0-1.72.74A17.14,17.14,0,0,1,5.26,50c.38-.19,1,.18,1.66.69-.12-.17-.24-.35-.35-.49.89-.6,1.86.06,2.77.8L8,51.52a7.48,7.48,0,0,0,3.38,1.55,1.35,1.35,0,0,1-.41-.74,1.35,1.35,0,0,0,.75.3c.22,0-.2-.32-.58-.73l2.2,0-.8-.29,1.92-2.11c-.4-.58-.88-1.17-1.35-1.8s-.85-1.24-1.23-1.92a7.43,7.43,0,0,1-1.09-4.54c1.1,1.33,2.28,1.16,4,1.94-1.08,0-1.06.62-.92,1.38s.47,1.67,0,2.3c.46-.67,1.24-.21,1.46.08-.26-1-.52-2.06-.76-3.13,1.38.63,1.23-.1,2.13-.45-3-.74-1-2.63-1.28-4.07.92.41,1.72,1.13.93,2.21,1.33-.16.73-1,.12-1.83s-1.19-1.75,0-1.92c-.16.3-.39.38,0,.74-.37-1.1,1.24-2.39,1.75-1.53l-.15.29a10,10,0,0,0,1.1-1.61,13.67,13.67,0,0,0,1.08-1.95c.57-1.34.71-2.79-.13-3.72.26.19,2.16,2.18,2.5,2.61A69.93,69.93,0,0,1,19,23.82,30.45,30.45,0,0,0,22.45,27c1.29,1.16,2.35,2.39,2.22,3.46.58-.15,1.19-.4,1.44-1.66-.47,0-2.89-1.64-2.67-2.13,2.72.83,1.64.28,4.24.73-.7,0-2.57-2.95-1.83-3.47.24.48,2.26,2.52,2.27,3A39.37,39.37,0,0,1,27.58,23c0,.8,1.73,2.28,2.67,2.77-.57-.4,1.44-1,1.67-1.59L30.77,24c2.1-1-.77-5.26,1.51-6.47.08.77,1.61,4.05,2.82,3.81a37.05,37.05,0,0,1-.92-5.21c-.18-2.17,0-4.44.82-5.58l.83.7A19.21,19.21,0,0,1,37.1,9.47c-.09,1.3-.24,3.58-.4,6s-.26,4.39-.4,5.65c1.14.31.76.92,1.86.3.81.64,0,1.54-.27,1.74l2.8-.68a2.27,2.27,0,0,1,.14-2.27c.34-.62.73-1.2.37-2a28.3,28.3,0,0,0-2.11,3.22,6.13,6.13,0,0,1-.46-3.74,4.52,4.52,0,0,1,.71-1.86,2.39,2.39,0,0,1,1.41-.95c.82.56.87,3.51,1.17,4.11,0-.73,1.46-1.94,1.8-1.54l-.49,1.33c.67.16.89-.64,1.22-1.32s.78-1.13,1.73-.39c.53,0,2,2.15,1.83,1-1.27-2-3.31-8.87-3.09-10.71.12,0,1,.39,1.95.84a7.88,7.88,0,0,1,2.35,1.64,4,4,0,0,1,.3,3,4,4,0,0,0,.2,2.83,2.69,2.69,0,0,1,.41-1.52c.61.38.08,1.71,1.16,1.29-.12-2,2.35-.18.29-1.79a1.13,1.13,0,0,1,1.2-.2,2.84,2.84,0,0,0,1.38.2c-.58-1.29.87-4.54,2.15-5.19a3.32,3.32,0,0,0,.4,1.49,12,12,0,0,1,1.7.16c.52.13,1,.3,1.45.45a11.37,11.37,0,0,0,3,.65c.17.49,1.2,1.17.65,2,.35-.32.72-1,1.41-.91,1.09,2-1.54,0-.8,2.31.22-1.17,1.93-1.36,3-1.95,0-1.85-2.26-.7-3.29-.11A6.83,6.83,0,0,1,69,6.93c1.1-.17,1.23.35,1.15.77s-.38.85-.17.72c1.81.69,2.88-.18,3.88-.88s1.92-1.28,3.2.19c.7,2-1,3-1.11,4.25A2.28,2.28,0,0,1,74.2,11c-.44-.44-.82-.95-1.37-1.06l1.11,1.08c-.66.38-1.79.51-2.24-.09a2.09,2.09,0,0,0,1.22,1,10.29,10.29,0,0,0,1,.4l1.18.49c1.63.68,3.54,1.31,4.48,2.6.67-.28,1.69-.41,1.6-1.17l-.91-.19c-.23-1.55,2.33-.87,1.53-1.93a14.9,14.9,0,0,1,2.49-.38,3.31,3.31,0,0,1,1.25.19,2.61,2.61,0,0,1,1,.84L86,14.6c.25-.48-.46-1.57-1.16-1.33.52-.17.81.74,1.18,1.46s.84,1.26,1.83.46l-.42-1.75c1.55-.1,4.14-.95,5.14.61.42-2-.41-.07-.21-2.54-.56,2.75-3.71-2.39-3.72.85A2.77,2.77,0,0,0,88,10a4.51,4.51,0,0,1-1.12-2.26c-.24.56,0,1.28-1.19.38a3.08,3.08,0,0,1-.52.34.55.55,0,0,1-.07-.09l0,.1c-.1.06-.11.07,0,0a1.94,1.94,0,0,1,.23,1.14c-1.27.93-3.23-.06-4.19.28-.62-.62.59-.49.45-1.28a15.39,15.39,0,0,0-1.45.56c.43-1.28-1.27-2.86.91-2.89l-1.69-.69c-.75-1.07-2.08-1.9-3.13-1.63-.76-.51-2.52.88-1.51,0l-3,.1.05-.33c-1.34-.49-2.89-.09-4.38-.06A6.15,6.15,0,0,1,63,2.27a5.35,5.35,0,0,1-3.51.2l-.3-1.18a6.92,6.92,0,0,1-2.38-.23C56,.91,55.23.86,55,1.48A2.49,2.49,0,0,0,53.36.12,4.42,4.42,0,0,0,52.26,0a7.22,7.22,0,0,0-1.19.2c-1.61.39-3.24,1.12-4.38,1l.21,1.51a10.79,10.79,0,0,0-4.36,2.05L43,6c-1.17,1.36-4,.27-6.31,1.26,0-.54.6-.63,1.12-.49a2.87,2.87,0,0,0-2.48-.12,6.44,6.44,0,0,0-1.82,1.58A11.11,11.11,0,0,1,31.87,10a2.67,2.67,0,0,1-2.08.52,1.19,1.19,0,0,1-1.39.82.26.26,0,0,0,.11-.14,1.07,1.07,0,0,0-.24.12c-.37,0-.77-.12-1.17-.13a3.17,3.17,0,0,0,1,.21,6.11,6.11,0,0,0-1.46,1.52l-1.06-1a1.54,1.54,0,0,0-.13.12c-.95,0-.13.89.81,1.58A3.19,3.19,0,0,0,26,14.84c-1.83-1.55-1.09,1.78-3.23.28.16.64-.45,1.39-.94,2.25a2.89,2.89,0,0,0,0,3c-.24-.24-.5-.21-.23-.49-.78.32-1.59.66-1.62,1.67l-1.53-1.09.2,1.48.29,1.51c-1.51,0-2.32-.08-2.6-1.87a8.62,8.62,0,0,1-.47,2.74,4.85,4.85,0,0,0-.2,2.44L14.78,26c-.45.67.07,2.63-1,2.4a3.35,3.35,0,0,0-2.13,1.14,15,15,0,0,0-2,2.77C8.15,34.37,7,37,5,38.65c1.8.3,1.19.61.48,1s-1.52,1-.28,1.57c-.86,0-1.53.4-1.94-.57a5.26,5.26,0,0,1-1.06,2.73A1.93,1.93,0,0,0,2.51,46c-.87,0-1-.83-1.57-.73.12.24.5.94,0,1.06s-.58-.53-.83-1c-.51,2.51,1.92,3.32,4.21,4-.7.45-1.05.83-1.05,1.24s.39.87,1.1,1.42c-.83.26-1.75.82-1.8-.69-.22.77-1.93,4.9,0,5.17-.5.21-.21,1.13,0,1.36a15.63,15.63,0,0,0-.29,3.78l.34-.49c2.24.72.51,1.46.85,2.9l-.24,0c-.75,1.67-.53,2-.34,2.37A.93.93,0,0,1,3,67a9.47,9.47,0,0,1-.55,1.72l1.4-.34c1.56,0,1.21.69.66,1.69S3.22,72.35,4,73.17l.7-.83c.57.4-.27,1.28-1.29,2.27s-2.2,2.08-2.25,2.67c-.2.31-.51-.26-.79-.54-1,3.32,1.92-.11,2.87,1.81-.86.68-2.64.25-2.38,1.72-.27.47.88,1.24,1.94,2.13A5.79,5.79,0,0,1,4.1,83.88a2.09,2.09,0,0,1,.28.84,1.68,1.68,0,0,1-.09.9c.53-.71,1.08-1.38,2-.75.45.61.2,1.82.22,2.93s.26,2.12,1.71,2.07a1,1,0,0,1-.39.54c1.15.67,2.83,2.63,4.29,2.44-1.8,1.81-.19,2.92,1.28,3.81a7,7,0,0,1,1.8,1.3c.36.43.3,1-.57,1.71l2.54,2.43-.4.26a3,3,0,0,0,2.06,1.41,5,5,0,0,0,2-.17c.17.57-.39.64-.58.79,1.75,2.91,2.34,2.91,5.79,2.69l-.64,1.37c.27-.06.56.2.89.63s.77,1,1.28,1.58a9.35,9.35,0,0,0,1.81,1.67,3.83,3.83,0,0,0,2.44.77,1.13,1.13,0,0,1-.63.43,4.45,4.45,0,0,1,2.71,1.12c.83.62,1.57,1.49,2.38,2,1.59,1.2,3.16,1.89,4.6-.47.87-.12,1.77-.42,2.63-.63-1.39-.58-1.1-1.11-.61-1.65s1.2-1.09.76-1.67c1.13,0,2.39,2.3,1,2.22l-.14-.31c-1.24,2.58,3.3,1.91,2.85,3.7a43.25,43.25,0,0,1,4.4.85,21.16,21.16,0,0,0,2.19.43l2.2.39,2.2.4c.73.08,1.47.12,2.2.17a31.91,31.91,0,0,0,4.37,0c-.3-.7-.59-1.38-.87-2.1.65,0,1.29-.1,1.94-.15.57.43.92,1.6-.51,1.72.92,1.12,2.23-1.39,2.17-1.86,1.42.23,1.28.9.86,1.5s-1.11,1.15-.68,1.11l1.14-.34-.3-.21c.39-.52.56-1,.84-1.39a2.23,2.23,0,0,1,1.5-.84c1.13.17.84,1.19,1.27,1.16,0,.16.2.19.66-.1l2.51-.46L74,116.8c.83-1.08,2.25-.52.6-2.09,1.21,1.23,3.47.66,5.57-.09s3.83-2.08,4.52-1.86a5,5,0,0,1,.69-1.14,5.24,5.24,0,0,1,.84-.91,10.37,10.37,0,0,1,2.17-1.33c-.59-.07-1.83-1.59-.4-2.18.84,1.81,1.73,1.86,2.68,1.51s2-.93,3.42-.19c-1-.4-.19-1.2.53-2s1.18-1.76-.35-2.18c1.19-.64,1,1.09,2.41,1.12a5.66,5.66,0,0,1,1.55-2.09c.32-.3.7-.56,1.06-.84s.74-.57,1.12-.86c1.53-1.14,3.37-2.24,4.32-4.08-.38-.37-1.41-.34-1.53-1.49,1.12,0,2.25-.06,3.4-.14.13-.4-.38-1-.64-1.48s-.25-.89.88-1c-.48-.07-1.19-.19-1.06-.72,3.16-2.57,4.65-6.45,5.81-10.24.57-1.92,1.27-3.77,2-5.66A16.69,16.69,0,0,1,115,74.1a25,25,0,0,1,1.89-2.75c-1.18.93-1.16.18-1.07-.65-.33.5-1.29-.21-2-.21.8-1,1.67-2,2.42-3-1.94-.77.06-3.59-1.82-4l.29,1c-1.09-.73-2.36-.29-3.71.23a8.58,8.58,0,0,1-4.21.89c.62.38.68.79.49,1.2a6.41,6.41,0,0,1-1.22,1.24c-1,.87-1.75,1.75-.12,3.16-.65.35-.85-.58-1.54-.45,1.16.76,1.2,1.47.37,2.52l-.26-.21a8,8,0,0,1-1.57,3.86l-1.26,1.63c-.45.58-.9,1.24-1.52,2l1.42.33a2.46,2.46,0,0,1-1.49.8c1.54,1.76,1.1-2,2.9-.26-1.57-.08-2.19,1.19-2.85,2.42S98.58,86.1,97,85.55c-.64,1,1.58.56.93,1.6L97,87l.8.9c-.57.61-1.79.25-2.4-.14.18-.11.15-.56.22-.75-1.47.19-1.42,2.48-1.91,2.57l1.12-.59a10.78,10.78,0,0,1-1.31,2.26l-1.8,2c-.3.34-.6.7-.88,1.06a10.73,10.73,0,0,0-.88,1,8.1,8.1,0,0,0-1.32,2.38l.62.34a2.6,2.6,0,0,1-.84,1.25,1.91,1.91,0,0,1-.87.33,3.19,3.19,0,0,0-2.2,1.24v-.19a2.13,2.13,0,0,1-1.23,1.89c.18-1-1.93-.61-1.61-1.82-.78,1.25-1,1.67-.94,2.13a8,8,0,0,1,0,2.55l-.91-.8c-.1,1.17.08,1.67-1.11,2.56.65-1.37-1.53-1.14-.9-2.85a2.4,2.4,0,0,0-2,.2,4.52,4.52,0,0,0-1.17,1c-.64.73-1.21,1.3-2.39-.16-.28,3.38,2.94.74,2.45,1.62,1,.71-.28,2.55-1.3,2.6-1,.33-2.76-3.29-4.92-2.66.23,0,.19-.27.41-.31-.51-.28-.84.08-1.23.4a1.44,1.44,0,0,1-.63.34,1.15,1.15,0,0,1-.83-.34c-.25,1.92-1.36.09-1.16,2.46l2.06-.86c-1.06.78-1.86,3.72-4.13,2.7a4.64,4.64,0,0,1,1-1.63c-.68-.62-1.09.68-1.78,0,0-1.17.6-1.38,1.37-1.57s1.68-.3,2.15-1.29c-.75-.9-2.11,2.06-1.85-.58-.22,1.69-.81,1.67-1.46,1.58a1.5,1.5,0,0,0-2.09.85l0-1.42c-.22.23-.7.93-1.16.92.26-.63.5-1.26.73-1.89-.57.82-1.18.51-1.76.1s-1.13-1-1.71-.56c1.19.05,1.33.47,1.3,1s-.27,1.28.27,1.77c-1.58.95-2-.07-2.47-1.16s-.87-2.35-2.53-2.11c.45-.15,1.61.93.85,1.57A3.39,3.39,0,0,1,53,105.17c-2.2,0,.14,1.5-.91,2.23-.51-1.84-1.19.53-2.33.92l.26-1.43a2,2,0,0,0-.75-.25.69.69,0,0,0-.48.09,1.75,1.75,0,0,0-.57.84c-.29.67-.57,1.33-1.62.48.5-.56,1-1.13,1.45-1.7l-1.3.2.65-1.53a2.44,2.44,0,0,1-1.68.45,2.88,2.88,0,0,1-1.3-.83c0,1.08-1,2.44-2.12,2.07-.47-1.09.89-1.14-.74-1.52.68-.71,1.43-1.65,1.65-.15.22-.42.63-.73.85-1.15-.44-1.21-1.84-.91-2.39-1.09a.94.94,0,0,1,.46.52c-.49.18-1,.37-1.47.52l-1.48.4c-.11-.66.34-.92.78-1.19-.49-.06-1.07.4-1.76.2.68-1,1.18-2.08,2.26-2.17l-2.52.24c.09-.51-.33-1.73.13-2-.32-.61-1.2-.48-2.15-.42s-2,.1-2.36-.76a1,1,0,0,1-.82.15c-.53-.57-.85-1.34-1.32-1.93a2.49,2.49,0,0,0-.88-.72,2.72,2.72,0,0,0-1.39-.32c.22-.76.44-1.5.68-2.24-.66-.27-.88.43-1.18,1.1s-.72,1.3-1.89.78c-1.74-.67.78-1.7.8-2.52-1.27.17-3.9.49-3.65-1.77C24.59,90.8,24.62,91.29,25.06,91.54ZM15.42,77c.41.23,1.52.53.8,1.07C14.54,78.24,15.17,77.66,15.42,77ZM11,49.49c.4.39.06.73-.59,1.08A1.17,1.17,0,0,1,11,49.49ZM77.81,5.94l-.06,0C77,5.11,77.25,5.45,77.81,5.94Zm1.72,1.3a.49.49,0,0,0,.32-.53c-.27.29-.71.15-1.17-.12C78.69,7,78.84,7.33,79.53,7.24Zm-7.14,111-.47-.27C72.67,117.31,72.52,117.73,72.39,118.2Z"/><path class="cls-1" d="M12.17,53.07a2.61,2.61,0,0,1-.79,0A.56.56,0,0,0,12.17,53.07Z"/><path class="cls-1" d="M33.56,98.1l0,.05a1.14,1.14,0,0,0,.19-.19Z"/><path class="cls-1" d="M50.49,16.3a1.66,1.66,0,0,1-.77-.64A.7.7,0,0,0,50.49,16.3Z"/><path class="cls-1" d="M90.52,10l-1.36-.38c.6.27.64.67.8,1C90.11,10.31,90.15,9.76,90.52,10Z"/><path class="cls-1" d="M93.85,23.69c.25,0,.28.23.53.21l.43-.52C94.23,22.91,93.49,23,93.85,23.69Z"/><path class="cls-1" d="M89,14.66c-.59,1.09.34,1.08,1.15,1.44A.27.27,0,0,1,90,16C91.2,14.76,90.11,14.65,89,14.66Z"/><path class="cls-1" d="M90.32,16.19a1.83,1.83,0,0,1,.67.46C91.47,16.16,90.81,16.33,90.32,16.19Z"/><path class="cls-1" d="M82.27,7.46c.27.47.88-1.31.91-.74.54-.6-.34-.5-1-.2-.33.14-.63.36-.68.54S81.64,7.38,82.27,7.46Z"/><polygon class="cls-1" points="87.38 18.37 87.95 16.96 86.89 17.73 87.38 18.37"/><path class="cls-1" d="M82.26,14.18l1,1a.57.57,0,0,1,.56-.3C83.12,14.43,82.43,13.77,82.26,14.18Z"/><path class="cls-1" d="M83.83,14.83a1.44,1.44,0,0,0,1.06.33A2.6,2.6,0,0,0,83.83,14.83Z"/><polygon class="cls-1" points="85.61 17.82 85.45 17.36 84.72 16.78 85.61 17.82"/><path class="cls-1" d="M68.78,9.26l-1.52.21c-.23.48.1.85.67.73C68.33,9.9,68.9,9.79,68.78,9.26Z"/><path class="cls-1" d="M72,14.28c-.27-.4-.2-.73-.28-1.26l-.52,1.79Z"/><path class="cls-1" d="M68.05,13.75c-.24.49-2.16,1.18-.5,1.31C67.78,14.55,69.18,14.39,68.05,13.75Z"/><polygon class="cls-1" points="47.48 11.66 47.82 11.55 47.13 8.57 47.48 11.66"/><path class="cls-1" d="M34.37,25c1.61-.12-.72-1.77.89-1.68-.07-.8-1.32-.07-1.34-.78C33.54,23.62,32.92,23.49,34.37,25Z"/><path class="cls-1" d="M33.92,22.51a3.8,3.8,0,0,0,.15-.64A1.37,1.37,0,0,0,33.92,22.51Z"/><polygon class="cls-1" points="117.92 65.31 118.62 64.09 117.56 64.85 117.92 65.31"/><path class="cls-1" d="M115.77,62.89l2-.25L116,61.9C116.08,62.17,116.22,62.7,115.77,62.89Z"/><path class="cls-1" d="M18.39,73.37l-.47.06c-.46.27-.44.49-.42.91Z"/><polygon class="cls-1" points="21.94 84.85 21.87 84.65 20.58 85.93 21.94 84.85"/><path class="cls-1" d="M29.91,91.2c-.25-.3-.84-.37-1.05-.73C29.63,90.91,28.47,92.84,29.91,91.2Z"/><path class="cls-2" d="M42.73,33.83l0-.34h-.05l-.1.37h0l-.6.7.72-1.84v0c.42-.9.86-1.79,1.27-2.69,0-.11-.05-.28-.09-.43l-.09-.1,1-2.49.16.06,0,.52c.14-.23.24-.57.42-.61.65-.18.78-.85,1-1.25a2.12,2.12,0,0,0,.13-2.56s0-.1.07-.27l.68,1,.17-.44h0a22.56,22.56,0,0,1,.68,2.26c.25,1.35.72,2.64.92,4a6.32,6.32,0,0,1,.1,1.23,2.25,2.25,0,0,0,.06.36c0,.67.07,1.33.11,2,0,.2,0,.41,0,.73l.33-.43c-.05.5-.08.83-.11,1.16s-.08.95-.11,1.43c-.06,1.12-.09,2.23-.17,3.34-.06.81-.2,1.6-.28,2.4s-.11,1.58-.22,2.36a13.18,13.18,0,0,1-.38,1.5c0,.06,0,.17,0,.18.46.24.08.46,0,.67s-.18.34-.26.51c-.73,1.71-1.12,3.58-2.54,5A11.31,11.31,0,0,0,44,54.7a14.7,14.7,0,0,0-.73,1.73l.21.19L44.91,56l-.67-.11c.46-.2.95-.26,1.15-.53.57-.75,1.58-.79,2.17-1.57.39-.51,1.44-.28,2-.94a2.67,2.67,0,0,1,.61-.43l.43.11.44.15,0-.08-.45-.1,0-.31c.54.07,1,.32,1.64,0,.31-.16.86.16,1.36.28l-.3-.56a6.22,6.22,0,0,0,1.73.4c1.52-.06,3,.5,4.55.22.13,0,.28.08.43.1a24,24,0,0,0,3.47.42,29.29,29.29,0,0,0,3.59-.43l1.8-.18v-.1h-.73l0-.16,3.31-.47c.28-.39.42-.75.68-.89a3.57,3.57,0,0,1,1.15-.19l-.88-.3c.94-.48,2-.18,2.7-1a1.56,1.56,0,0,0,.55,0,13.23,13.23,0,0,0,1.67-.87.94.94,0,0,0,.36-.61c.09-.83.13-1.66.2-2.49,0-.09.09-.17.2-.34,0,.41,0,.7.06,1L80,43.21l.11,0-.3.88c.44-.7.72-1.45,1.09-2.15s.58-1.64,1.37-2.17l-.12.46-.21.22.08,0,.12-.26.54-.43,1.25,1.83c.08.12.12.34.22.37.87.24.72,1.11,1,1.69a6.51,6.51,0,0,1,.43,1.16,19.75,19.75,0,0,1,1.09-2.27c.38-.58,1-1,1.1-1.77s.22-1.17.33-1.76a.51.51,0,0,1,.09-.14l.31.25L89,36.74l.18,0a2,2,0,0,1,.07.48,3,3,0,0,0-.06.59A12.77,12.77,0,0,0,89.52,39c0-.12,0-.24,0-.32a3,3,0,0,1,.35-.36,1.92,1.92,0,0,1,.11.46c0,.36,0,.72-.06,1.08l.2.06.27-.66c.31.84.65,1.58.85,2.36.31,1.2,1,2.31.63,3.67a5.13,5.13,0,0,0,.19,2.11,11.74,11.74,0,0,0,1.32,3.75c.65,1.09,1.16,2.27,1.77,3.38A6.35,6.35,0,0,1,96,59.76a6.17,6.17,0,0,0-.12.75c-.16.92-.31,1.85-.5,2.77-.15.74-.41,1.46-.53,2.2-.26,1.62-.47,3.26-.68,4.9a.71.71,0,0,0,.14.48c.55.72,1.14,1.41,1.68,2.14a2.34,2.34,0,0,1,.23.72h0l-2-2.54-.73.46.88,1.4-.16.09c-.58-.29-.64-1.55-1.71-1l.36,1-.16.07a3.13,3.13,0,0,0-.4-.6,1.26,1.26,0,0,0-.63-.29c-1-.14-1.85.34-2.9.43l1.07.81a9.65,9.65,0,0,1,1.45.15c.24.06.44.35.61.57a8.1,8.1,0,0,1,.55,1c.3.58.82,1.16.82,1.75a9.36,9.36,0,0,0,.36,2.25,1.75,1.75,0,0,1,0,.35l-1.38,1.13a4.49,4.49,0,0,0,.07.67c.12.64.27,1.27.37,1.91,0,.13-.08.29-.12.43a1.44,1.44,0,0,1-.37-.26,1.71,1.71,0,0,1-.23-.37c-.53,1-1.09,2.07-1.61,3.13A7.49,7.49,0,0,1,87.81,89c-.07.05-.26-.08-.4-.13l.41-.21-.06-.09-.34.31a3.53,3.53,0,0,1-.66.36c-.34.11-.77.31-1.06.2a5.24,5.24,0,0,1-3.14-2.87,29.93,29.93,0,0,1-1.25-3.07,7.84,7.84,0,0,1-.44-4.2c-1-.8-1.35.42-2.08.64l.23.41A5.52,5.52,0,0,1,76.93,80c-.65-.4-1.07,0-1.67-.07,1.24,1.67,1.61,3,1.13,4-.08-.55-.12-1-.2-1.43s-.21-.81-.32-1.22c.59,3.14.4,3.36-.52,5.71l-.51-.32c0,.19-.09.39-.13.58s0,.15,0,.19c-.19.26-.4.51-.59.76,0,0,0,0-.08,0L74,87.86l-.58,2-.25-.07c.08-.34.17-.69.23-1s.1-.75.14-1.12l-.26-.07c-.07.2-.14.39-.2.59-.24.8-.47,1.6-.73,2.39-.06.17-.26.3-.4.44L71.84,91l.81-2.24c-.48,0-.68.19-.56.64a1.32,1.32,0,0,1,0,.48c-.14,1.16-1.13,1.76-1.74,2.6a4.48,4.48,0,0,1-1.1.85c-.24.18-.49.35-.74.52a6,6,0,0,0,1.8.12c1.47-.14,3-.34,4.42-.5a5.58,5.58,0,0,1,1.41-.06,3.92,3.92,0,0,1,3,2.06,1.59,1.59,0,0,1,.09.5,1.46,1.46,0,0,1-.51,0c-.5-.19-1-.42-1.48-.63l0,.1.7.46c.05.49.07.88.13,1.28s-.27.61-.51.42c-1-.76-2.09-.25-3.11-.52a3.34,3.34,0,0,0,.69.62,12.86,12.86,0,0,1,1.16.76c.42.35.35.64-.22.73.14.72,0,.82-.68.62s-1.13-.47-1.75-.05a3,3,0,0,1,.12.29c.07.19.14.38.2.57-.21,0-.41-.08-.62-.09A7.27,7.27,0,0,0,71,100.4a3.92,3.92,0,0,1-1.76.13c-1.38-.23-2.76-.5-4.15-.66a23.41,23.41,0,0,0-2.78-.06c-1.11,0-2.22,0-3.33,0s-2.09.14-3.14.12a3.92,3.92,0,0,1-1.48-.42c-.21-.1-.49-.56-.42-.67.29-.51.65-1.28,1.09-1.36.77-.14,1.06-.65,1.48-1.1.14-.15.3-.26.44-.39l.14.15c-.3,1.34-2.06,1.32-2.48,2.52a2.31,2.31,0,0,0,2.27,1c.6,0,1.19-.21,1.79-.25,1.66-.1,3.32.05,5,0a39.91,39.91,0,0,1,5.91.67,3.28,3.28,0,0,0,1.37-.24.43.43,0,0,0,0-.78,4.48,4.48,0,0,0-1.39-.33c-.64,0-1.29.07-1.93.07a5.65,5.65,0,0,1-1-.19l0-.15a7,7,0,0,0,1.52,0,7.3,7.3,0,0,1,4.46.7,2,2,0,0,0,.73,0c-.24-.32.3-.84-.31-1.07a5.07,5.07,0,0,0-3-.33,3.78,3.78,0,0,1-.47.06l0-.18,2.45-1V96.5a7.61,7.61,0,0,0-1.17,0,16.63,16.63,0,0,1-4.62.11,18.2,18.2,0,0,0-2.09,0v.15l1,.09,0,.17H61.8v.15l2.4.18a.52.52,0,0,1-.38.36,7.37,7.37,0,0,1-.94,0H60.61v.22h3.18v.23H59c.58.23,1.3-.11,1.78.72a3.28,3.28,0,0,1-.59-.07c0-.66-.5-.27-.73-.27-.66,0-1.33,0-2,.08a.41.41,0,0,1,.25-.29,15.55,15.55,0,0,1,1.61-.73c.81-.27,1.32-1.19,2.32-1.09.06,0,.17-.3.22-.47s0-.39.1-.47A1.81,1.81,0,0,0,62.57,94c0-.25,0-.5,0-.75l.18,0c.32,1-.13,2-.36,3.1.21-.09.29-.09.32-.13.55-.77,1.13-1.52,1.62-2.31.22-.36.72-.61.56-1.18-.38-1.33,0-2.79-.7-4.08,0,0,0-.09.07-.19,1,1.12.56,2.54,1,3.75l.16,0c-.11-.76-.21-1.52-.31-2.28a4.58,4.58,0,0,1,.51,3.78,5.86,5.86,0,0,0,.22-4.48s-.07,0-.1,0l-.08.48h-.2l-.36-2.19a6.43,6.43,0,0,1,1.21,2,14.59,14.59,0,0,1,.36,2.37,3.56,3.56,0,0,0,.11-2.31c-.18-.71-.34-1.42-.52-2.18.85.39.52,1.49,1.28,2.1-.21-1.45,0-2.83-1-4l.51-.24.77,1.16.33.25a4.73,4.73,0,0,0-2.6-5.23c.14-.45.45-.33.66-.13s.55.74.91,1a5.21,5.21,0,0,1,1.66,2.54,7.27,7.27,0,0,0-1.69-3.31l.11-.11.8.57.12-.12a6,6,0,0,0-1.4-1.63c.3-.32.46-.3.69,0,.41.62.88,1.2,1.33,1.79l.15-.12a5.84,5.84,0,0,1-.33-.53,5,5,0,0,1-.21-.54l.59,0c-.45-.39-.89-.81-1.38-1.16A7.47,7.47,0,0,0,66.47,79h0c-.11-.19-.17-.46-.33-.57-.77-.51-1.56-1-2.42-1.53.26,0,.56,0,.75.09,1.17.78,2.32,1.6,3.48,2.41l.29.2.14-.16-1.6-1.67c.21-.27.41-.19.67.08a2,2,0,0,0,.61.32l.08-.17L67.44,77l1,.18c-.16-.27-.24-.54-.4-.61-.6-.27-1.23-.46-1.84-.69-.2-.07-.55-.16-.55-.25,0-.67-.63-.57-1-.82l.08-.1c1.06,0,1.66,1,2.59,1.32a2.87,2.87,0,0,0-.45-.47,2,2,0,0,1-.3-.36c-.08-.15-.08-.4-.2-.47-.39-.26-.82-.47-1.23-.69l0-.18.22-.49-2.12-.52.61-.5-1.55-.51.09-.24c2.25.11,4.53.14,6.15,2.16.11.13.21.28.4.54l-.6-.28.23.37h0l-1.85-.84,0,.1,2,1.29-.11.14-.34-.11L68.1,75l1.18,1.62-.47.14c.32.63.65,1.24,1,1.86a1.23,1.23,0,0,1,0,.43,1.32,1.32,0,0,0,0,.34c.12.46.26.92.4,1.37h0c0,.78,0,1.55,0,2.32,0,1.29,0,2.57,0,3.86l-.16,0-.25-.27c-.06,1.32-.12,2.69-.18,4.15.18-.41.34-.76.49-1.12s.25-.39.41,0l-.25.43.16,0,.08-.49c.32-.6.64-1.2,1-1.8a.34.34,0,0,0,0-.31c-.33-.45.11-.41.27-.55l.23,0-.07,1.35.14,0c.16-.77.32-1.54.47-2.24.18-.24.47-.47.5-.73a15.76,15.76,0,0,0,0-1.82l.24,0,.3.83c.15-.21.34-.36.32-.49a1.31,1.31,0,0,0-.71-1.17l0,.58-.14,0L72,81.15c.73.13.7.87,1.1,1.3l-.51-2,1.07.31A3.19,3.19,0,0,0,73,80c-.18-.14-.44-.21-.58-.38s-.32-.6-.54-.85c-.38-.44-.12-.89-.2-1.34l.18,0,.3.83.13,0v-.93a8.79,8.79,0,0,1,.91,1.53c0,.09.13.2.2.21.86.12,1.63.69,2.56.45a2.37,2.37,0,0,1,1.24,0c1,.31,1.54.27,2.15-.54.29-.39.57-.36.94-.37a5.63,5.63,0,0,0,1.07-.21,4.25,4.25,0,0,0,.59-.27,4.3,4.3,0,0,0-2.68-.68,2.07,2.07,0,0,1-.75-.14h0l.13-.37a14.53,14.53,0,0,1,2.47.45,6.53,6.53,0,0,1,2.21,1.25,1.49,1.49,0,0,0,1.18.5c1.29-.11,1.47,0,2,1.19a1.86,1.86,0,0,0,.78.88c.35.18.48.34.41.7l-.06.3h.05c0-.1,0-.19,0-.28.5-.92,1-.42,1.66,0A5.26,5.26,0,0,0,89,80.3,8.65,8.65,0,0,0,88.12,79c.4,0,.78.07.9.27a6.3,6.3,0,0,1,.65,1.54A1.56,1.56,0,0,0,91.5,82a5.16,5.16,0,0,1,.52-.09c-.06-.31-.13-.61-.18-.91a3.4,3.4,0,0,0-1.73-2.75,1.75,1.75,0,0,1-.48-.46c-.25-.32-.47-.66-.73-1a2.44,2.44,0,0,0-.52-.37l.22-.24,1.83,1.41a1.36,1.36,0,0,0-.93-1.11L88.15,76l0-.12L89.4,76c-.39-.33-.64-.56-.92-.76a8,8,0,0,0-4.32-1.08l-.29-.17.14-.22c1.11.16,2.21.35,3.33.44.23,0,.49-.31.65-.59l-1,.23c.06-.55,1-.23.61-.94l.26-.13-.13-.12-.17.21c-.37.26-1,.18-1.14.78,0,.07-.32.14-.46.1-.55-.16-1.09-.37-1.64-.53a9.21,9.21,0,0,0-.91-.2l1.21-.45c-.68-.26-1-.12-1.2.45l-.49-.71c-.07,0-.3.17-.37.11s-.2-.34-.32-.57l-.15.47-.12-.34-.11,0c.1.2.14.51.3.6.56.32,1.16.56,1.75.83a.92.92,0,0,1,.4.3l-.28,0A24.24,24.24,0,0,1,78.83,71l1.22.59V68.09l-.15,0a2.43,2.43,0,0,0-.17.52c-.09.75-.16,1.51-.24,2.27l-.24,0c.07-.86.14-1.73.23-2.75l-.88.27-1.38-.19v-.07L78.35,68V64.61l.3.36a7.61,7.61,0,0,0,.87,1,9.08,9.08,0,0,0,1.13.67c.52.33,1.23.36,1.5,1,0,.06.23.07.34.09.61.06,1.21.16,1.81.17s1.09.46,1.65,0c.06,0,.37.1.36.13-.06.51.4.46.65.63.55.37,1.14.7,1.68,1.09.11.07.11.3.16.45-.17,0-.37,0-.48-.06-.38-.27-.69-.63-1.07-.87-1.24-.78-2.53-1.43-4.07-1a.6.6,0,0,1-.22,0L81.53,68c.64.8,1.13,1.44,1.66,2.06a2.47,2.47,0,0,0,.69.51c.3.15.46.29,0,.66l1.2.1a1.69,1.69,0,0,0,1.26.79c.53,0,1.07.13,1.73.21l-1.74-1.53c1,.06,1,.06,1.38.69a2,2,0,0,0,1.89.77l.18-.18.73-.29.78-2.84.18-.06A4.61,4.61,0,0,1,91.73,70c0,.55.25.73.75.7-.14.19-.28.37-.41.57a3.6,3.6,0,0,0-.19.39l1.24-.38c-.28-.24-.47-.4-.65-.57.17-.75.5.16.8-.14a5.94,5.94,0,0,0,.83-2.85,15.82,15.82,0,0,1,.29-2.37,14.57,14.57,0,0,1,.35-1.45c.15-.56.35-1.11.46-1.68a3.08,3.08,0,0,0,0-.85h-.21c-.08.43,0,1-.67.94,0,.56.12,1.19-.7,1.27v-3l-.32.67c-.2-.83-.36-1.49-.53-2.16v-.6h.13l.24.57.15-.63.58,1.81a6.8,6.8,0,0,1,0-2.38,10.71,10.71,0,0,1,.39,2c0,.42.18.64.57.68V57.12l.51.31c-.08-.64-.5-1.22.17-1.7-.33-.44-.38-1.07-1.14-1.17l.72,1.8-.21.09-.31-.65-.71.06c-.08-.5-.15-1-.23-1.44-.16-.92-.29-1.84-.52-2.74-.1-.41-.51-.76-.59-1.17-.33-1.73-1.09-3.39-1-5.22a11.38,11.38,0,0,0-.26-2.07c0,.64,0,1.28,0,1.91s0,1.28,0,1.91c0,.16-.28.31-.44.46l-.19-.15c.07-.21.07-.48.21-.62.69-.68-.33-1.33,0-2,0,0-.09,0-.1,0a2.45,2.45,0,0,1-.2-.48c0-.2,0-.41,0-.62,0-.44-.06-.88-.1-1.32a.7.7,0,0,0,0-.12l-.37.16V41l-.24.34-.3-.7v2h-.21l-.16-1.31H89l-.51,3.75H88.3V44l-.35.11-.14-.56-.1,0c0,1-.1,2.07-.16,3.2l-.62-.49c.35.59,0,1-.39,1.36V44.76a2.47,2.47,0,0,0-.19.6c0,.7,0,1.41,0,2.12,0,0,.13.08.2.11l.53.63-.86.47.08.57-1.23.39c0-.94,0-1.88,0-2.81a7.11,7.11,0,0,0-.22-1.78,9.71,9.71,0,0,0-.76-1.51c-.19-.41-.36-.83-.54-1.24l-.58,1-.18-.1L83,42.15l-.11,0-.4,1.13-.36-.15-.21.53-.5-.14c-.29.41-.48,1-.79,1.08-.83.18-.84.87-1.12,1.39A8.73,8.73,0,0,0,79,47a4.21,4.21,0,0,0-.38,1.35,2.22,2.22,0,0,0,.92,2.19l-.18,0c0,.25.19.5.14.71a3.5,3.5,0,0,1-.39.83l.64.39-.56.32c0,.37,0,.73,0,1.09s-.18.67.28.95a.51.51,0,0,1,.1.82l-.73-.86a5,5,0,0,1-.4-1.31,2.57,2.57,0,0,0-1.67-2.46c-.37-.15-.73-.33-1.09-.5l-.06.16a8.21,8.21,0,0,1,.9.41c.12.07.15.27.21.41l-.09.11-2-1-.12.19L77,52.67l-.06.09-2.8-1.7-.1.16,2,1.43a7.29,7.29,0,0,1-.77-.22,6,6,0,0,0-3.12-.87l3.44,1.67-.09.22c-1.11-.36-2.12-1.1-3.39-1l.83.76-.07.09c-.77-.26-1.44-.86-2.46-.75l2.89,1.82,0,0L72,53.92c-.77-.33-1.43-1-2.45-.84l2.94,1.85,0,.11-1.16-.58-.06.11,1.45.93c-1.67-.73-3.18-1.76-5-2.14l2.25,1.46a.78.78,0,0,1-.56-.09c-.58-.3-1.14-.62-1.73-.87-.1,0-.5-.43-.52.14l-.06.08-.06,0-.05,0,.49.45-.71-.2,1.06,1.13.06,0,.35.44c-.81-.4-1.49-1-2.24-1.4a4.14,4.14,0,0,0-2.55-.73l2.06,1-.37,0c-.31.44-.64-.13-1.07,0s-1.2-.32-1.8-.56-1.15-.51-1.73-.76l-.06.15,1.15.58-.05.11h-.87l-.32-.2,0,.09.37.1.85.77,0,.08-2.74-1.52-.1.17,2,1.2-.1.13-3.69-1.72-.07.16,1.54,1.07-.09.1c-.84-.45-1.68-.91-2.53-1.35a3.54,3.54,0,0,0-.58-.17l0,.15,1.78,1.2h0a1.16,1.16,0,0,1-.42-.06c-.93-.41-1.86-.82-2.78-1.26-.3-.15-.52-.2-.61.16l2.48,1.56-.07.19-1.13-.31c-.17-.11-.33-.23-.5-.32s-.14.15-.21.24l-1-.31-.21-.31-.1.09.33.23-3.46-.38,0,.15L53.2,55l0,.19-.61-.08c-1.22-.14-2.45-.29-3.67-.4-.19,0-.4.17-.59.26l.06.17h2.51v.23h-3v.16l1.42.16,0,.16H46.45V56l2.58.31v.1H45.75v.17h3v.16c-1.34.13-2.73-.18-4.19.41l2.68.18c-1,.29-2.06,0-3,.52h2.67v.09l-3,.27v.15H45.2v.06l-2.49.52,0,.21A8.51,8.51,0,0,1,46.11,59a11.83,11.83,0,0,0-3,.49,10.42,10.42,0,0,1,3.2.17c-.65.12-1.31.06-1.94.13s-1.54-.07-2.11.58l-.49.08.05.15.45-.24a9.21,9.21,0,0,0,1,.17c.83,0,1.66.05,2.49.08v.27H42.17l0,.31,1.2.23.07.21c-1.16-.34-1.83.25-2.44,1.14h3.31l0,.18c-.08,0-.17.15-.23.13a1.13,1.13,0,0,0-1.14.24,2.17,2.17,0,0,1-1.59.55,4.17,4.17,0,0,0-.78.1A.93.93,0,0,0,41,64l.42,0c-1.76.64-1.76.64-1.83,1.13.41-.74,1-.56,1.62-.53-.16.13-.36.14-.5.25-.36.28-1,.64-1,.9.07.5-.23.67-.42,1l-.24.2.1.06c0-.09.09-.18.13-.27.46.11.48.33.18.65s-.5.56-.78.87c.59.33.24.61,0,.84a1,1,0,0,0-.29,1.23.7.7,0,0,1-.07.85c-.28.4-.39.77.11,1.07-.2.49-.61.91-.17,1.43.06.06,0,.31,0,.34-.47.28-.38.68-.3,1.1a2.31,2.31,0,0,1,0,.64h-.12l-.17-.43a15,15,0,0,0,2.21,5.12l-.59-.1a3.17,3.17,0,0,1,.57.83,11.62,11.62,0,0,0,1.9,3.36c.09.13.26.28.24.4a2,2,0,0,0,.81,1.74c.2.21.37.45.55.67l-.19.19-.81-.65a1,1,0,0,0,.29.53c.86.94,1.74,1.86,2.58,2.81.24.27.36.63.82.68.09,0,.16.3.3.57l.61.16c0,.25,0,.44,0,.62a4.34,4.34,0,0,0,.07.52h.11l.1-.57a6.27,6.27,0,0,0,.92,1.3,1.8,1.8,0,0,1,.66,1.35c0,.25.27.47.42.71l.14-.08-.12,1.13c.9.19.74-.69,1.25-1.18v1.38l.9-1.4.16.07c-.11.32-.22.65-.38,1.14l1.43-.72.11.16a2.57,2.57,0,0,1-1.47,1c-.74.12-.77.6-.82,1.17a5.46,5.46,0,0,0,1.09-.82c.6-.57,1.45-.51,2.13-.89,0,0,.07,0,.14.08,0,.57-.55.65-.93.87-1.28.73-2.84,1-3.71,2.41,0,0-.08,0-.19,0l.55-.9c-1.46.36-2.27,1.89-3.84,1.79l.33-.6a9.61,9.61,0,0,1-1.34.53c-.41.1-.86.35-1.3-.07l1.46-.36,0-.2c-1-.16-1.95.62-3,.58-.24-.69-.85-.34-1.35-.42a2,2,0,0,1,.65-.39c.44-.16.88-.29,1.32-.43l.39-.11.3,0,0-.08-.27.11-.39.11c-.4.07-.78.17-1.18.21-1,.11-1.94.19-2.92.28l0-.24,2.15-.34c-1.58.29-2.78-.93-4.25-1l0-.18h1.29l0-.2-3.36-.76.09-.1,1.13.14a6,6,0,0,0-2.91-1.21c-.16,0-.44-.08-.44-.13,0-.5-.5-.43-.78-.58a7.07,7.07,0,0,0-.8-.33l.06-.16,2.84.93.08-.22-2.12-.83c.31-.61-.47-.85-.46-1.42,1.67,1.66,3.92,1.9,5.95,2.85-.3,0-.63-.15-.72,0-.44.48-.67,0-1-.13a11.93,11.93,0,0,0-1.27-.44l-.06.24a7.8,7.8,0,0,0,3.84.89l-.35-.25-.27-.16.12-.14c.63.14,1.21.55,1.9.38a5.38,5.38,0,0,1,1-.19,4.61,4.61,0,0,1,.82.11l0,.21-.72.11v.14l1.29.21,0,.26-3.66-.44,0,.22,5.34.75a7.59,7.59,0,0,0-.78.32s-.06.15-.09.23l-1.38-.11v.21a1.82,1.82,0,0,0,1.5,0L44,98.32l-.7-.41a1.84,1.84,0,0,1,.81,0c.25,0,.5,0,.74,0v-.1l-.89-.24,0-.12,2.76.17c-.7.29-1.26.56-1.84.75s-1.19.3-1.79.45l.06.23c.79.22,1.33-.62,2.08-.56,0,.06,0,.11,0,.13s-.13.17-.24.31c1.16-.34,2.31-.57,2.89-1.74l.68-.85c-.57,0-.57.49-.67.86l-.27-.45-.61.08c.4-.36.94-.65,1.16-1.1a4.49,4.49,0,0,0,.13-1.58h-.21c-.05.32-.49.65,0,.94L46.86,96.3l-.07-.2L45.19,96l.93-1.6-.19-.15L45,95c-.34-.77-.73.07-1.19-.06l.65-.78L44,93.88l.75-.79-.06-.16c-.32,0-.64,0-1,0a2.71,2.71,0,0,1-1-.16,9.85,9.85,0,0,1-1.26-1.06l.73-.12-1.7-1.45.6.27.05-.06-1.06-.9-.06.07.46.61c-1.07-.61-2.25-1.07-2.91-2.24l1.45,1c-.23-1.05-1.15-1.3-1.68-1.91v-.16l.92.58-.2-1.19a6.15,6.15,0,0,0,1.1,1,5.19,5.19,0,0,0,1.33.34.82.82,0,0,0-.22-.44,8.57,8.57,0,0,1-.67-.82c-.56-.86-1.1-1.74-1.64-2.61h0c-.1-.17-.18-.36-.29-.53-.28-.45-.57-.9-.86-1.34v-.2l-.37-.47h0l-.24-.37h0l-.87-1.55.18-.14.24.59a18.94,18.94,0,0,0-.64-2.12C34.6,76.22,34,74.87,33.5,73.5l.07-.06.46.12.18.44a3.6,3.6,0,0,1,.52.6,6.67,6.67,0,0,1,.34.88.81.81,0,0,0,.12-.62c-.2-.87-.44-1.73-.65-2.59a.69.69,0,0,1,.09-.52c.5-.48.27-1,.25-1.5l-.19,0-.38,1L34.08,71,34,70.9v-1h.13l.23.38c.62-.42.36-1,.24-1.51l-.22.1.18-1.37h.12l.45,2.11A8.41,8.41,0,0,1,36,68c.57-.63.67-.75.47-1.42l-.62.69c-.07-.76.85-.84.61-1.63A4.45,4.45,0,0,1,36.59,64l.36.12-.13.86c.36-.28.52-.59.21-1l.31-.89c.22-.07.44-.07.49-.17a1.66,1.66,0,0,0,.24-.72c0-.66,0-1.32,0-2a2.59,2.59,0,0,1,.18.85.31.31,0,0,0,.17.25.33.33,0,0,0,.31-.07,6.81,6.81,0,0,0,.29-.71l-.49.16c.34-.52.88-.9.63-1.63l-.37.32c.13-1,.25-1.94.37-2.88l.09,0,.33,1.2c0,.32-.08.68-.12,1l-.12.21.11,0v-.24c1.17-.22.95-1.39,1.52-2.1h-.56c.28-.17.48-.21.54-.33a1.39,1.39,0,0,0,.06-.55l-.08-.09a1.72,1.72,0,0,0,.64-1.49c0-.12-.15-.27-.11-.35.3-.61.63-1.2.9-1.71l.73.09.49-.93,2.16-3.07-.08-.06-2.79,3.24-.16-.13A2.85,2.85,0,0,1,43,51l1.83-2.35.33-.37L45,48.16c-.07.14-.14.29-.22.43L44.3,49l-.44.41c1.16-2,2.81-3.55,4-5.5a2.37,2.37,0,0,0-.37.56.57.57,0,0,1-.27.16c-.21-.25-.29,0-.4.1a11.17,11.17,0,0,1-.77,1,1.85,1.85,0,0,1-.6.28l-.15-.21a7.23,7.23,0,0,0,2.25-3.91l-1.09,1.17L46.22,43c1.13-1,1.41-2.36,1.94-3.63a10.05,10.05,0,0,0,1-4.23c-.3,1.19-.57,2.26-.86,3.32,0,.15-.21.26-.32.39,0-.17-.16-.37-.11-.53.16-.56.41-1.09.56-1.66.25-.93.46-1.88.68-2.83l-.13,0-.72,2.84-.27,0a1.33,1.33,0,0,1-.08-.51c.1-.42.29-.82.39-1.25.18-.83.33-1.67.5-2.51L49,32,48.9,32c0,.13-.06.26-.08.39s-.14.44-.2.65c-.31,1-.61,2.09-.91,3.13l-.15,0c.24-1.87,1-3.66.95-5.58-.23.8-.41,1.6-.62,2.4-.31,1.2-.62,2.39-1,3.58-.15.52-.2.54-.65.38.2-.5.42-1,.6-1.5s.38-1.06.52-1.61.19-1,.28-1.53h-.1l-.76,2.2-.1,0,.45-3c.15-.76.31-1.53.47-2.29l-.2,0c-.09.77-.18,1.55-.26,2.33a3.43,3.43,0,0,1-.25.55c-.39.58-.33,1.42-1,1.81h0V33h0l.27-.88.08-.3h-.07v.32l-.28.11c.14-.62.27-1.19.42-1.77,0,0,.13,0,.2,0l-.21.74.17,0,0-.78c.11-.21.21-.42.38-.78l-.5.42L46.26,30c.08-.46.17-.92.25-1.38l-.24,0c-.22,1.06-.42,2.13-.66,3.19,0,.16-.2.29-.31.43l-.14-.1.31-1.84-.12,0-.71,1.69-.14,0,.87-2.53-.14-.07a4.67,4.67,0,0,0-.54.72c-.32.65-.58,1.33-.9,2s-.69,1.27-1,1.9ZM38.32,83.32l.08,0-.2-.21-.09-.23-.14.11.24.11ZM65.4,72.22v.1h.34l.28.14,0-.08-.31,0Zm-27,8-.1,0,.17.34.39.49,1.39,2.06L40.4,83c-.52-.65-1-1.29-1.57-1.93l-.39-.49Zm9-48.72.09,0,0-.54.13-.24-.12,0V31C47.51,31.12,47.46,31.29,47.42,31.46ZM50.06,98.4l-.26-.24-.24.42-.26.09,0,.09.23-.18ZM40.61,98l0-.16-.41-.05-.18-.13-.06.09.24.16Zm47.7-55.47h.07l.06-.51.09-.34h-.07v.36C88.4,42.23,88.36,42.39,88.31,42.56ZM45.53,50l-.24.1.14.11.09-.22c.13-.17.25-.34.38-.5l.2-.17-.1-.08-.09.26ZM64.69,95.44l.21.07.06-.34L65.3,95l-.11-.11-.22.3Zm-22.82-40c.12.36.3.3.47,0s.31-.52.46-.77l-.61.09-.32.33-.21.31.21,0ZM39.33,61.9l.15,0v-.58c.08-.2.15-.41.23-.61l-.19,0,0,.66Zm12.18-7.64,0-.15L50.82,54l-1-.27,0,.14,1,.12Zm-4-6.93-.12-.08-.45.85-.22.15.08.08.13-.24Zm-12,24.75.12-.82-.12,0-.22.61-.57.79.22.12.34-.92ZM81,42.81l.2,0,.2-1.07.41-.51-.16-.09-.24.61C81.23,42.14,81.09,42.47,81,42.81Zm-44.14,37L36.6,80l.63.75.41.74.14-.09-.49-.7Zm-1.5-9,.09-1.3.25-.05,0-.09-.19.15C34.94,69.92,35,70.36,35.32,70.84Zm0,3.43h.19l-.17-1.44.37.24,0-.6-.33.37C34.7,73.32,35.29,73.79,35.27,74.27ZM78.38,51.34l-.3-.46a1.38,1.38,0,0,0-1.57-1.43l1.58,1.43-1.37-.81.23.43-.88-.25,0,.07,1,.53-.1-.36Zm-32.6-.91c-.32.35-.49.93-1.26.7l.16.67a7.75,7.75,0,0,0,2.23-2.56l.27-.13L47,49l-.12.25ZM75.31,95.18c-.7-.13-1.39-.3-2.1-.38-.35,0-.71.12-1.06.09-.59-.06-1.14.48-1.81-.14-.42-.39-1.3-.29-2-.41l-.06.2.94.2,0,.16-2-.27,0,.21,2.76.35v.17l-3.68-.2v.14l1.43.41,0,.16h-1V96c.88.1,1.75.23,2.63.28.22,0,.45-.18.66-.29.36-.17.7-.36,1.07-.52a.54.54,0,0,1,.34.07,4.53,4.53,0,0,0,1,.57c.94.22,1.91.34,3,.54-.25-.61.63-1.06-.17-1.49Zm7.5-13-.13,0-.17.43-.26-.13.16-1h-.15v1a6.22,6.22,0,0,1-.26-1c0-.55,0-1.11,0-1.66h-.2q.17,2,.33,4l-.53-1a14.53,14.53,0,0,0,1.51,4.08,7,7,0,0,0,1.9,2,1.24,1.24,0,0,0,1.45.16c1.71-1.05,3.35-2.18,4.08-4.19a1.71,1.71,0,0,0,0-.4,2.79,2.79,0,0,1-.2.22l-.21.26-.1-.65-.86,1.33L88.94,85c.14-.46.29-.92.43-1.39l-.21,0L89,85l-.24.28-.13,0,.54-2.61-.27,0c-.17,1-.35,1.92-.53,2.88l-.18,0c.09-.91.18-1.82.26-2.73h-.05L88,84.22h-.13c0-.08,0-.16,0-.24s0-.15,0-.37c-.36.44,0,1.29-.91,1.16l.16-2.91h0c-.09.54-.17,1.09-.25,1.64h-.12v-2h-.06l-.23,2.13-.22-.64-.08.47H86V80.1h-.21v3.15h-.15c-.11-1.28-.22-2.55-.32-3.82l-.22,0V82.2h-.17l-.08-.74h-.08l-.09,1-.31-.73-.15.76H84V79.5H83.8v2.54h-.23V79.49H83.4v2.7h-.16c0-.83-.09-1.65-.13-2.48a8.57,8.57,0,0,0,.06,4.09l-.3-.36-.41.31.16-.56Zm7-6a8.64,8.64,0,0,0,1.16.9c.1-.25.19-.5.28-.74s.07-.36.15-.39c.66-.24.35-.6.2-1a1.1,1.1,0,0,0-1.45-.84,10.24,10.24,0,0,0-1.42.52A14.53,14.53,0,0,0,89.77,76.14Zm2.52,3.07-.16-.09c.59-1.09,1.34-2.16.29-3.29h-.26l.07.9h.19c-.24.33-.24.85-.88.85a1.16,1.16,0,0,0-.27.9,12.68,12.68,0,0,0,1,1.77s.12,0,.05-.15c.13-.22.27-.44.39-.67s.25-.49.38-.74L93,78.62ZM74.81,93.81c-.94.18-1.89.33-2.84.5a1,1,0,0,0-.55.3,17.64,17.64,0,0,1,2.16-.25,6.06,6.06,0,0,1,2,.32,1.11,1.11,0,0,0,1.34-.26C76.4,93.58,75.62,93.66,74.81,93.81ZM81.59,71l-.46.75c-.24-1,.23-1.94-.58-2.69a13.62,13.62,0,0,0-.14,2.54c0,.27.7.48,1.18.78ZM68.15,89.26l-.27,0a9.89,9.89,0,0,0,0,1.09c.09.92-.5,1.61-.77,2.4a1.36,1.36,0,0,0,0,.86l-.54.52c.61,0,1.53-1.5,1.71-2.78l-.37.56-.08,0ZM46.54,95.44a3.41,3.41,0,0,0,.74-2.13l-.19-.08-1.41,2.44.08.15C46,95.7,46.43,95.65,46.54,95.44ZM39,83a5.22,5.22,0,0,0,2.66,3.08ZM63.28,96.33h2.43v-.09l-2-.17A4.2,4.2,0,0,0,65,93.74C64.45,94.59,63.89,95.41,63.28,96.33ZM43,62.87l-2.6.21,0,.19a5.33,5.33,0,0,0,.85.29,6.87,6.87,0,0,0,1,0C42,62.87,42.66,63.21,43,62.87ZM41.52,88.93a2,2,0,0,0-2.13-1.22C40.15,88.08,40.42,89.13,41.52,88.93Zm.16-34.36.24.21,2.19-2.67L44,52A29.21,29.21,0,0,0,41.68,54.57ZM79.4,67.86H80l-.38-.73,1.75.75.09-.2-1.9-1ZM68.83,89.8a3.25,3.25,0,0,0,0,.69h.25c.08-1.12.15-2.23.23-3.35l-.09,0C69.12,88,69,88.91,68.83,89.8Zm4.31-8.65,1.13,2.94A4.44,4.44,0,0,0,73.14,81.15Zm5.57-13.22c.66-.15.74-1.12.12-2ZM45.29,52.25l-.16-.14c-.53.74-1.54,1.06-1.78,2l.15.12ZM38.36,79.53l.16-.08-.88-1.78-.16.08A1.75,1.75,0,0,0,38.36,79.53Zm29.39-4.16a1.85,1.85,0,0,0-1.86-1.46Zm21.63,8.72.26.07L90.21,82,89.88,82Zm0-10.34-.6-.49L88,74.45l.11.14ZM72,97.21l2.9,1.05A4.92,4.92,0,0,0,72,97.21ZM84.75,79.47c-.53.13-.62.62-.32,1.78C84.55,80.57,84.65,80,84.75,79.47Zm-46-17.87c-.54.59-.32,1.19-.41,1.71l.27,0Zm1.07-2.1-.5.9.25.11L40.1,59l-.13-.1-.35.53Zm8.59,38.08-.23-.2-.74.91.22.18Zm-.49-54.06.2.07.7-2-.14-.06ZM42.51,57.94l.11.14a4.76,4.76,0,0,0,.7-.47,6,6,0,0,0,.48-.72l-.06-.09ZM35.42,75.67c-.21.67.24,1.12.57,1.62ZM74.49,81c0,.5,0,1,.63,1.13ZM41,86.67l-.1.12,1.19,1.14.12-.13Zm7.5-56.54h.17V29H48.5ZM36.94,76.24h.17L37,74.87h-.1Zm9.92,19.19A2,2,0,0,0,47.61,94s0,0,0,0C47.33,94.45,47.09,94.94,46.86,95.43ZM73.42,86l.11,0-.07-1.24-.31,0ZM47,26.24l.29,0,.06-1.16h-.18ZM90.38,83.93l.14,0L91,82.52l-.19-.06C90.64,83,90.51,83.44,90.38,83.93Zm3.51-29.52H94l-.12-1.52-.21,0C93.76,53.4,93.82,53.91,93.89,54.41ZM76.05,95.92l-.26.52,1,0ZM75,99.11c-.47-.54-.6-.56-.94-.1ZM81,68.26l-.14.13.63.69.17-.16Zm-43.5-4.1.14,0,.42-.87-.28-.13Zm40.68,31c-.23-.54-.23-.54-1-.23ZM43.72,90.87l.05-.17-1.19-.32,0,.12Zm-5,7.9v.07l1,.11v-.18Zm7.44,1.46.09.16,1-.65-.06-.1Zm-3.07-7.9,0,.11.92.1v-.21ZM37.26,66l-.21,0-.11,1,.14,0Zm8.58,28L46,94l.57-.76-.15-.11Zm0-45.07-.1-.07-.55.84.13.1Zm-.23-19.2.13,0,.34-1-.14-.05ZM72.55,99.82l0-.14L72,99.47l0,.24Zm-.17-21.36-.13.1.42.6.17-.12Zm18.56,5.62.13,0c.1-.31.19-.62.29-.94l-.14,0Zm-44-56.14.1,0,.12-1.06H47Zm41,54.71.11,0,.17-.68-.21,0Zm7.88-23.83h0V57.67h0ZM69.85,91.91l-.17-.09-.36.65.11.06Zm14.77-19,0,.13.65-.2-.06-.19Zm-29.09-20,0,.1.78.32.06-.13ZM67.74,87.11h-.11l.13.87.09,0ZM36.2,69.05l.15,0,.22-.63-.2-.06Zm4.08-6.91.1.14.44-.35-.07-.14Zm1.18,26.08-.07.1.66.51.07-.1Zm.94,3.69V92l.76.07v-.15ZM61.25,53.18l0,.14.65.23.07-.15ZM83.74,71.24l0,.06.51.48.12-.14Zm-2.24-.71.11,0-.14-.75-.1,0Zm-5.73,13h0v.86l.08,0ZM41.62,61.14,41.54,61l-.55.32.06.12Zm7.31,35.5-.12-.09-.4.5.14.13ZM86.28,72.87l0,.08.7-.32L87,72.5Zm-1.21-.67,0-.12-.47-.21-.06.21ZM86.29,81h-.12l0,.7.16,0ZM44.75,91.41l0-.12-.51.16.1.19Zm0-1,.07-.12L44.2,90l-.06.12Zm26.8-1.31-.13-.06-.31.62.1.08ZM46.86,46.87l-.09,0-.16.6.17,0ZM38.77,67.6l-.1-.08-.32.46.11.06ZM65.92,73v-.1h-.47V73ZM86,73.25v-.12h-.45l0,.12Zm-42.4,18.2.06-.13-.41-.18-.06.16ZM45,99.68l0,.11.35-.08,0-.17ZM88.6,87.94l0-.06-.42.33.08.1ZM48.81,40.08l.12,0,.15-.53-.1,0Zm38.35,3.65-.16,0-.09.53H87ZM79,45.56l.07,0,.2-.46-.1,0ZM80.59,68.3h-.07l.06.41.11,0ZM36.11,77.71l-.11,0,.15.52.13-.06Zm46.54,2.65h-.08v.52h.05Zm-40,9.75c0-.06,0-.11,0-.12l-.34-.22-.09.18ZM74,85.83H74v-.38l-.07,0ZM37.63,72.62l.14.08.18-.33-.16-.08ZM72.88,86.39h-.07l0,.57h.12ZM68.2,94V93.9l-.53.06v0Zm27-33.6h0v-.46h-.08ZM67.32,89.93h0l0,.41h.06ZM38,68.75H38v.35H38Zm6.79,23.17,0-.09L44.4,92l.07.12ZM36.51,69.84l-.1,0-.19.41.15.05Zm12.88,27.4,0-.1-.3.13.05.11Zm37.93-13.5h-.1l0,.36.08,0Zm-52.67-8,.12,0-.14-.42h-.07Zm48.14-4.56.09,0-.06-.35-.11,0Zm-37-43.54-.1-.05-.16.31.11.05Zm.14,23.57.08.06.26-.31-.11-.08Zm-1.61-.43.1.11.12-.38ZM93.9,61.25h0v-.4l0,0ZM75,82.81h.1l0-.29-.15,0ZM70.43,91.3h.1l0-.26h-.1Zm-27.6-.1,0-.06L42.57,91l0,.07Zm1.44,8.21,0,.14.34-.08,0-.11ZM83.39,72.13v.15l.22,0v-.14A.83.83,0,0,0,83.39,72.13ZM38.41,65l-.1,0-.08.36.07,0Zm-.8,17.29.07,0-.2-.32-.09,0ZM47.87,46.42l.06,0,.16-.28L48,46.12Zm22.6,7.7.06-.08-.36-.23,0,.08ZM37.53,77h-.1l0,.3h.1ZM65.84,95.85v0l.41.05v-.08Zm5.9-43.5,0-.15-.31-.05,0,.08ZM69.51,85.86h-.09v.3l.12,0ZM50.86,53.75l0-.06-.18-.1,0,.06Zm-6,40.47,0,.06.25-.19L45,94ZM87.42,83l-.08,0-.14.32.09,0ZM41.71,55.94l-.1,0-.11.29.07,0Zm-2.85,9.78h.07l0-.31h-.1ZM87,44.7l-.07,0-.15.29.08.08ZM48.77,43l-.06,0-.13.26.05,0Zm41.47-2.35h0v-.29h0ZM41.57,99.09V99H41.3v.14ZM74.2,80.51a1,1,0,0,0-.08-.14l-.12.07.11.15S74.21,80.52,74.2,80.51Zm-32.87,6a1,1,0,0,0,.06.16l.16-.06ZM48,44.88l.06,0,.1-.19-.07,0Zm-2.8,47.45s.08-.07.11-.1-.07-.1-.11-.1-.09.06-.16.1S45.1,92.33,45.15,92.33ZM88.25,43.6a.48.48,0,0,0,.16-.08s0-.07-.06-.29ZM39.14,87.77l-.06.07.15.13,0,0ZM42.05,58a.22.22,0,0,0,.11-.05s0,0,0-.11ZM82.92,41s0-.06,0-.09l-.13,0V41S82.9,41,82.92,41Zm-40,47.45a.17.17,0,0,0,0-.1.94.94,0,0,0-.15-.06l0,.12A.42.42,0,0,0,42.91,88.44ZM39.42,89l.12-.07s0-.07-.07-.08-.06,0-.09,0Zm.84-29.52,0,0-.1.16.07,0A1.34,1.34,0,0,0,40.26,59.44ZM48,27h-.06l0,.28h0ZM70.84,90.36s0,0,0,0l-.13.16.08,0A1.3,1.3,0,0,0,70.84,90.36ZM51.77,54l0-.06-.19-.15-.07.1Zm-10.69,6.7-.08,0-.14.2.06.05ZM67.26,91.2h0v-.34Zm.21-17.78,0,0,.15.11,0-.07ZM36.15,80l-.08,0,.09.28.13-.06Zm48.63.62,0,0,.05-.2H84.8A1.23,1.23,0,0,0,84.78,80.63ZM42.53,53.12l-.08,0-.13.25.1,0ZM69.21,84.28l.1,0L69.23,84h-.08Zm-29.66.81h0l0,.21.09,0A1.62,1.62,0,0,0,39.55,85.09Zm-2-19.31h0V66h0Zm29.28,6.9s0-.07,0-.08-.07,0-.18,0Zm-30.41-1h0l0,.17.07,0ZM83,79.17s0,0,0,0L83,79l0,.08Zm-1.23.06h0V79h-.06Zm-44.52,0a.6.6,0,0,1-.08-.08l0,0,.07.07Zm48.69-6.94-.11,0a.18.18,0,0,0,0,.07l.1,0Zm-4.5,7.21,0,0,0-.14h0Zm-43.52.06Zm35.42,7.71s.08,0,.08-.07,0-.06-.08-.12ZM87.05,45.52l.06-.07s0-.05,0,0l-.09,0ZM74.56,79.91a.6.6,0,0,0-.08-.08s-.06.07-.06.09.06,0,.08.06S74.56,79.92,74.56,79.91ZM48.32,44.27s0-.06,0-.09-.05,0-.06.07a1,1,0,0,0,0,.11S48.32,44.3,48.32,44.27ZM41.53,57.42a.2.2,0,0,0,.11,0s0-.06,0-.09l-.17,0S41.51,57.42,41.53,57.42Zm-.2.35a.52.52,0,0,0,.1-.11s-.07,0-.1,0,0,.05-.08.09ZM68.75,88.08l-.11.19h.15Zm-27-28.33,0,0,.14-.11,0,0Zm48.7,22.61s0,.07,0,.11,0,0,0,.07Zm-.13.55a1,1,0,0,0,0,.1l0,0,.08-.07Zm-54.87,14a.34.34,0,0,0,.08.09s0,0,.08,0l-.07-.09Zm9.12-4.28Zm22,2,.19,0v-.15ZM37,65.48a.18.18,0,0,0,.09-.06s0-.07,0-.1L37,65.4S37,65.49,37,65.48ZM69.33,85.41s0,0,0,0,0,0,0-.07v0Z"/><path class="cls-2" d="M40.1,38.88l.14-1.11-.4.61h0c-.17-.65-.34,0-.51,0,.34-1.09.67-2.18,1-3.27,0-.13.07-.26.1-.39l-.15-.06c-.27.61-.56,1.21-.79,1.83a10.6,10.6,0,0,0-.37,1.5c0,.11.14.25.21.38-.08.65-.15,1.3-.24,2.08l.49-1.19h0L39.23,41h-.18c-.53-1,.19-2.08-.32-2.94-.81,1-.62,2.34-.5,3.64l-.19,0-.33-.77,0,0c0-.46,0-.91,0-1.37L38.53,38l-.28-.12-.54,1.64L37,41.43l0,0c.19-.87.39-1.75.58-2.62h-.06c-.21.42-.41.84-.61,1.26l0,0,.07-.7a2.71,2.71,0,0,0-.7.89c-.31.69-.57,1.41-.85,2.12l-.06-.06.08-.54-.1,0-.62,1.88-.11,0c.17-.68.34-1.35.54-2.1-.44.6-.82,1.13-1.21,1.64a1.28,1.28,0,0,1-.31.24c0-.14-.17-.29-.15-.42a2.78,2.78,0,0,1,.21-.59c.19-.59.39-1.18.58-1.76l-.2-.12a4.51,4.51,0,0,0-.54.72,4.5,4.5,0,0,0-.33,1c-.19.9-.39,1.8-.5,2.71s-.11,2-.22,3.05A4.56,4.56,0,0,1,32,49L31.82,49a2.66,2.66,0,0,1,0-.28c.16-.82.35-1.63.49-2.46,0-.32.13-.81,0-.95-.38-.34-.14-.59-.06-.89l.18-.63-.51-.12.79-2.27-.29-.09q-.73,2.51-1.49,5l-.27-.07.28-1.37-.11,0-.77,3.42-.7-.44c-.28,1.46-.54,2.84-.81,4.22l-.15,0,.48-3.64L29,48h-.1v.34c-.25.73-.51,1.47-.76,2.21l-.17,0q.91-4.11,1.81-8.22l.12,0c.06.63.13,1.27.2,1.91h.16l.4-2.08.24,0V43.5l.1,0c.2-1,.41-2,.65-3.15l.29,1.27L33,38.11l.22,0-.16,1.1.82-.24-.14,1c.43-.91.77-1.85,1.14-2.77.06-.14.27-.23.4-.34.1.17.31.37.28.52-.21.88-.47,1.76-.72,2.64-.13.43-.26.86-.38,1.29,1.08-1.48,1.17-3.27,1.73-5.09l.18.66,1.83-2.7.11.63c-.49,1.06-1,2.12-1.45,3.18l.3.12,1.14-3.31c.13-.7.27-1.41.4-2.12h.07v1.86c.41-.51.08-1.37,1-1.65l-.27,1.9.2,0c.15-.88.29-1.77.45-2.71l.53.29.24-1.3h.23l.07.65-.1.28.09,0V31.8c.82-1.29,1.68-2.57,1.55-4.24l.2.05v3.25l.88-1.36.09.1c-.12.29-.27.56-.37.85-.28.75-.55,1.51-.81,2.27v0l-.9,1.86s.1.11.15.16a6.1,6.1,0,0,0-.14.72c0,.11.09.22.19.44l-.51,1.65-.1,0v-.88l-.36.69-.07,0,.43-1.54-.16,0a16.59,16.59,0,0,0-.73,2.23,13.77,13.77,0,0,0,.05,1.81,10.49,10.49,0,0,1-.29,1.44l-.21,0a6.6,6.6,0,0,1,0-.77c0-.45.14-.9.19-1.36,0,0-.14-.09-.21-.13ZM29.78,44.75h-.17v2l-.09.34h.07l0-.36C29.66,46.05,29.72,45.4,29.78,44.75Zm11.9-10.46-.2-.08-.75,2.16-.26.74.12,0,.13-.78Zm.89-3.51-.13-.06c-.29.6-.61,1.19-.85,1.8s-.42,1.25-.62,1.87l.19.07ZM40,37l.18.06.54-1.69-.11,0Zm-9.58,8.34-.14,0L30,46.34l.16,0Zm5.84-6.57-.15,0c-.09.33-.18.65-.28,1h.13Zm.41-1.09.12.06.3-.66L36.91,37Zm5.52-4.79.07,0,.14-.34-.06,0ZM29.67,44.11h0v-.46h0Zm5.22-5.66h0l0,.3h.08ZM42,33.32l-.11,0,0,.13Z"/><path class="cls-2" d="M24.1,85.22l.1,0c-.07-.1-.15-.2-.22-.31l-.65-.63c-.16-.16-.51-.4-.49-.43.31-.52-.26-.65-.39-1a2.94,2.94,0,0,0-.3-.42l.06,0,.71.5.09-.12L22.18,82l.29-.21-.78-1.24c1-.5,1,.66,1.7.82a3.35,3.35,0,0,0-.7-.92c-.51-.49-1.33-.73-1.29-1.7l.91.23,1.52,1.9.11.26.07,0-.19-.2A4.86,4.86,0,0,0,22.3,79l-.9-1c.75-.28.67.59,1.18.6a4.11,4.11,0,0,1-1-3l.9,1.43.13-.08a11.11,11.11,0,0,0-.91-2.15c-.44-.63-.12-1.36-.48-2a2.67,2.67,0,0,1-.18-.7l.11,0c.64,1.29,1.29,2.59,1.93,3.89l.13.13,2.24,4.17-.73-.63L24.35,79l-.14.09c.16.2.33.39.5.58s.15.5.25.8l-.4-.15-.1-.36-.1,0,.21.3.81,1-.11.1-.64-.57-.05,0L25.36,82l.1.39,1.18,1.34-.09.1c-.32-.22-.63-.58-1-.61a1.34,1.34,0,0,1-1-.56l-.65-.78-.17.15c.41.45.83.9,1.21,1.36.19.22.61.25.47.76-.06.22.2.65.33.92A13.86,13.86,0,0,0,27.22,87c-.37.32-.21.58.12.85a13.27,13.27,0,0,0,2.4,2c.13.06.31.2.3.29-.05.45.32.58.59.68.68.24,1.4.39,2.1.6a3.86,3.86,0,0,1,1.17.46,4,4,0,0,1,.74,1L30.8,91.69l-.06.15.69.33,2.14.93-.07.1-.62-.14-.05.15a7.35,7.35,0,0,0,3.85,1.45,1,1,0,0,1-.75.16c-1.06-.36-2.1-.77-3.15-1.15l-.25-.23-.05.08.31.13,1.78,1,0,0-.29,0,.43.34h0l-2.94-1,.13-.18c-.13-.15-.24-.36-.4-.44a13.14,13.14,0,0,1-1.68-.69c-.68-.43-1.27-1-1.91-1.5l-2.46-1.93.77.29-.14-.43.07-.06,1.24,1a1.9,1.9,0,0,0,1.28.67l.06-.15-1.35-.51.5-.53L27,88.94l.17.63L23.53,86.7l1.16.29L23.1,85.57l.1-.11.93.45.09-.17-1.28-.87.1-.23.93.26Zm-1.63-4.1-.14.11,1.3,1.67.21-.14C23.38,82.21,22.93,81.66,22.47,81.12Zm8.42,11.65.1-.32L29.44,92l-.07.17Zm-3.78-4.46.1-.13L25.75,87l-.13.17Zm6.12,3.9.07-.16L32,91.43l-.07.22Zm-10-14.32-.14.06.54,1.23.14-.07Zm1.86,7-.13.13.72.73,0,0ZM23.31,83.3l-.07.07.22.26.08-.08ZM24,78.63l.06,0-.26-.33-.07.06Zm5.94,12.7,0,.09.31.07,0-.06ZM22.33,77.47l0,0a.6.6,0,0,0-.08-.08l0,0Z"/><path class="cls-2" d="M23.21,65.41l1.29,2.33.11,0c-.14-.45-.29-.89-.43-1.34A10.9,10.9,0,0,1,23.52,64a7.63,7.63,0,0,0,.05-1.52c-.07-.2-.14-.39-.2-.59l.14,0,0,.63.37.74V61.73H24l.15.43a5,5,0,0,0,.14-1.26c-.13-.75-.35-1.48-.54-2.22l.23-.1.44.77V58h.06c.13.59.25,1.18.38,1.77l.16,0c-.11-1.51-.22-3-.33-4.66l.43,1.26h.1l-.34-2.32c.2.29.08.88.73.66a5.43,5.43,0,0,1,.17.53c.07.36.12.72.18,1.09l.15,0c-.1-1-.21-2-.31-3,0-.14-.08-.27-.11-.41l.1,0v.44l.66,1.61c.08.21.18.41.27.62h0c-.07-.8-.14-1.6-.22-2.43l.12.2.86-2.81h0l.13-.9h0l.89-3.94-.16,0c-.36,1.06-.71,2.11-1.11,3.32l.08-1.31-.2,0c-.25.9-.5,1.8-.74,2.7l-.2,0,.27-2.67-.13,0c-.19.75-.34,1.51-.57,2.25s-.53,1.45-.76,2.06l0-.38-.14,0-.28,2.21h-.06V51.8h-.22L23.92,56h-.1l-.25-2.32h-.16a34.44,34.44,0,0,0,.16,6.34c.1.24.19.48.29.73l-.13,0-.15-.78c-.2-.69-.41-1.39-.61-2.09a4.13,4.13,0,0,0-.5-1.17L23,60.13l-.18,0c-.18-.59-.35-1.19-.53-1.78l-.15,0a5.59,5.59,0,0,0,.09.7c.25.95.53,1.89.77,2.84a2.4,2.4,0,0,1,0,.6h-.2l-.88-2.49-.16,0L22.44,63h0l.75,2.39Z"/><path class="cls-2" d="M80.74,52.75a2.57,2.57,0,0,0,0-1.75c.31-.52.12-.88-.55-1.06,0-.26-.05-.52-.08-.78H80l-.18,1.11-.23,0,0-.88-.47.11c0-.17,0-.4,0-.5a1.85,1.85,0,0,0,.31-1.68,1.33,1.33,0,0,1,0-.28.65.65,0,0,1,.31.46c.05.33.08.67.11,1s.27.45.64.3a3.74,3.74,0,0,1,.14-3.17c.07-.15.16-.41.25-.41.57,0,.7-.49,1-.79a6,6,0,0,1,1-.74c.07-.05.23,0,.34,0,.51.23.45.77.61,1.19a5.23,5.23,0,0,1-.35,3.86s-.1,0-.27.07c.08-1,.15-2,.22-2.91h-.12L83,47.32l-.27,0c0-.7,0-1.41,0-2.11,0-.14.22-.26.27-.41s-.18-.17-.28-.25c-.09.25-.18.5-.25.75a.61.61,0,0,0,0,.19c-.06.45,0,1-.21,1.31-.39.44-.23.75-.06,1.12s.36.77.54,1.15l-.22.18-.33-.61-.08.08.28.69c-1.25-.86-1-2.13-1-3.38a4.27,4.27,0,0,0-.38.78c-.11.26-.35.55-.31.79a16.06,16.06,0,0,0,.53,1.85c0,.11.14.28.1.32-.33.37,0,.48.23.6.45.27.92.5,1.42.78-.11.07-.16.13-.2.13-.88-.08-1.22.43-1.46,1.19a6.81,6.81,0,0,1-.79,1.48.32.32,0,0,1-.29.13.33.33,0,0,1-.17-.28c.09-1.13.2-2.25.31-3.38h.11l.15.62Zm.2-3.47c0-.06-.12-.17-.19-.25l-.28.48.22.14A1.42,1.42,0,0,0,80.94,49.28ZM81,46l-.11,0-.11.43.1,0Zm1-1-.07,0-.14.22.11.06Z"/><path class="cls-2" d="M71.65,63.75c1.7,0,3.4,0,5.09-.15a2.4,2.4,0,0,1,2.42,1.21c.32.58.85.81,1.19,1.28a1,1,0,0,0,.46.33,1.13,1.13,0,0,0,.44,0A1.28,1.28,0,0,0,81,66c-.16-.13-.39-.18-.54-.31s-.56-.25-.39-.67c0-.09-.19-.29-.32-.42s-.38-.32-.57-.48l-.48-.26.28-.31.21.56.62,0a1.15,1.15,0,0,1,.41,0A13.38,13.38,0,0,1,88.13,69c.18.23.37.61.88.24a16.54,16.54,0,0,0-10-5.68c.73-.92.19-1.47-.27-2h0c-.08.09-.23.2-.22.28a2,2,0,0,0,.29.51l-.69-.09c.08.46-.28,1,.53,1.19l-.21.19c-.38-.11-.91-.1-1.12-.36s-.16-.81-.22-1.23l-.24,0,.08,1.34c-1.12.05-2.22.08-3.31.16-.66,0-1.3.17-1.95.26Z"/><path class="cls-2" d="M87,59.63a1.17,1.17,0,0,0,.56,0c1.39-.2,2.12.47,2.11,1.88a6.65,6.65,0,0,0,.25,1.14c0,.19.06.5,0,.58a.87.87,0,0,1-.6,0c-.38-.1-.74-.24-1.11-.37a3.77,3.77,0,0,1-.64-.23c-1-.58-.89-1.67-1.15-2.53C86.44,59.71,86.5,59.4,87,59.63Zm.2.44c-.54.47-.11.84,0,1.34C87.83,60.89,87.3,60.53,87.21,60.07Zm.91,0c.12.3.16.56.25.58s.34-.09.51-.15v-.14Z"/><path class="cls-2" d="M23.06,76l.13.13.63-.5c-.25-.49-.51-1-.76-1.45l.3-.11.45,1.56c.26.67.49,1.35.78,2a3.39,3.39,0,0,0,.59.68l.06-.05c-.3-.82-.62-1.63-.89-2.46a4.1,4.1,0,0,1-.09-.85l-1.73-2.67.15-.14a2.12,2.12,0,0,0,.48.37c.1,0,.27,0,.41-.09-.05-.14-.06-.32-.16-.41-.27-.26-.68-.43-.84-.74-.53-1-1-2.15-1.55-3.4.09.52.14.89.22,1.25s.19.77.29,1.19c-.52.19-.53.48-.32,1,.63,1.42,1.19,2.87,1.77,4.31A2,2,0,0,1,23.06,76Z"/><path class="cls-2" d="M22.43,68l.88.39v-1.1l.42.31c-.19-.8-.35-1.52-.52-2.23l0,0L22.43,63h0l-.6-1.24-.14.05c.42,1.54.83,3.08,1.25,4.63l-.1,0-1.28-3.93c-.2.85.28,1.45.24,2.14l-.57-1.94h-.1a7,7,0,0,0,.06.8c.24,1.1.5,2.2.74,3.3Z"/><path class="cls-2" d="M70.89,77.14a3.23,3.23,0,0,0,0-.62c-.07-.24-.08-.54-.52-.43s-.45.27-.37.63a7.66,7.66,0,0,1,.06,1h-.17l-.64-3,.62-.22.27.55,1.22-.75.14-.67.21,0c0,.32,0,.64,0,1a3.86,3.86,0,0,0,.12.57c.12-.15.29-.28.34-.45.16-.51.26-1,.39-1.54l.16,0,.24.77.5-.46.22.2a9.35,9.35,0,0,1-1.24,1.6,2.45,2.45,0,0,0-1,1.94,7.89,7.89,0,0,1-.21,1.26l-.07,0-.27-1.27Zm.17-2-.31.4c-.1-.51-.45-.28-.72-.23-.07,0-.14.2-.15.31s.09.23.14.23a.89.89,0,0,0,.35-.11c.14-.06.26-.14.39-.21C71.54,75.83,71,75.12,71.06,75.1Z"/><path class="cls-2" d="M83.25,62.86l.89,1L84,63.9l1.5.83.07.07a8.65,8.65,0,0,1,2.72,2.73,4.42,4.42,0,0,0,.64.66l.22-.16a3,3,0,0,0-.43-.81c-.86-.82-1.76-1.6-2.64-2.4l-1.83-1.65h1.23l-2-1.33,0-.08,1.06.45.08-.12L83.56,61c.37-.2-.06-1.08-.92-1.66,0,.15,0,.29,0,.37a3.24,3.24,0,0,1,.44,2c0,.21.29.43.47.64A2.49,2.49,0,0,1,84,63l-.73-.54,0,.43Z"/><path class="cls-2" d="M22.43,68l-.49-1.2c-.12-.31-.23-.62-.37-.92-.26-.62-.54-1.23-.82-1.85l-.3.1c.27,1.06.49,2.13.83,3.16.4,1.23.9,2.42,1.36,3.63a.91.91,0,0,0,1.06.57,6.69,6.69,0,0,1-.59-.71c-.11-.19-.51-.38,0-.7.12-.07-.06-.67-.17-1A10.27,10.27,0,0,0,22.43,68Z"/><path class="cls-2" d="M54.61,71.21a2.69,2.69,0,0,0-.21-.2c-.19.13-.35.28-.58.47l.27-1.78-.18,0-.25.71c-.65,0-.35.58-.54.87a12,12,0,0,1-.63,1.15l.14-2.06H52.5a13,13,0,0,1-.29,1.38c-.2.63-.46,1.24-.69,1.87a2.45,2.45,0,0,0-.08.39c.15,0,.35,0,.43,0,.5-.42,1-.86,1.45-1.32s.87-.93,1.3-1.4Z"/><path class="cls-2" d="M73.91,76.11a2.19,2.19,0,0,0,.27-.66,11.28,11.28,0,0,0,0-1.3h.16l.07,1.16h.18c0-.88.11-1.76.16-2.63l-.19-.06-.29.69c-.18.09-.39.13-.47.26-.59.88-1.16,1.78-1.73,2.68,0,0,0,.14,0,.34l1.8-2.29v1.84Z"/><path class="cls-2" d="M86.55,55.42c-.25,0-.45,0-.3.33a2.22,2.22,0,0,1,.23.84c-.15-.18-.29-.38-.45-.54s-.22-.07-.32-.1l0,.3.1.19.92,1.05.73-.49a5.61,5.61,0,0,0-.7-2.23l-.21,0v.63l.21.31-.09,0Z"/><path class="cls-2" d="M75.91,73.58c.11-.89.22-1.78.34-2.72-1.35.31-1.31,1.8-1.06,3.54l.39-2.33h.15v1.48Z"/><path class="cls-2" d="M92.1,60.47c-.16-.35-.31-.7-.48-1a5.77,5.77,0,0,0-.29-.55l-.14.06,1.39,4.84a4.52,4.52,0,0,0,.25-1.31,5.84,5.84,0,0,0-.46-1.33l0-.05-.24-.62Z"/><path class="cls-2" d="M56.39,96.05l-4.26,2.07C53.1,98.39,56,97,56.39,96.05Z"/><path class="cls-2" d="M24.05,68.32l.77,2.06-.09,0-.47-.67-.18.13,1.54,2.37.25-.13-1.56-3.88Z"/><path class="cls-2" d="M67.86,86.34l.33.25c-.25-.85-.46-1.7-.75-2.53a3.46,3.46,0,0,0-.6-.81l-.22.17.62.8c-.76-.45-1-1.48-2.14-1.62C66.24,83.79,67.62,84.64,67.86,86.34Z"/><path class="cls-2" d="M41.81,39.59c-.11.85-.22,1.71-.35,2.64.62-.52.49-1.17.61-1.7.15-.24.42-.48.42-.72a22.36,22.36,0,0,0-.23-3.15c-.06.88-.11,1.75-.17,2.62a1.13,1.13,0,0,1-.19.4Z"/><path class="cls-2" d="M30.67,50.43c0,1.86-.05,3.72-.06,5.58,0,0,.2.08.34.14V50.44Z"/><path class="cls-2" d="M91.91,65.24a13.11,13.11,0,0,0-.26-4l-.31,0c.08,1.34.17,2.67.26,4Z"/><path class="cls-2" d="M78.61,58.48l1.2-.23L79.51,57l-.23,0-.21.62-.73-1.32-.14,0c0,.21.09.42.11.64,0,.44.08.88.12,1.32Z"/><path class="cls-2" d="M36.11,56.56c-.27,1.6.49,5.26,1.13,5.71Z"/><path class="cls-2" d="M87.7,55a3.71,3.71,0,0,0,.5,3.1l-.09-1.17.66.53-.28-1.19h-.13l-.12.38Z"/><path class="cls-2" d="M83.07,57.26c-.46.94.23,2.69,1.17,2.82l-.76-1.23c.12-.14.42-.39.38-.45A10.68,10.68,0,0,0,83.07,57.26Z"/><path class="cls-2" d="M36.43,64.44,34.93,60l-.19.06a15.51,15.51,0,0,0,1.51,4.5Z"/><path class="cls-2" d="M29.55,74.35a18.79,18.79,0,0,0-2.94-3.95C27,71.36,29.1,74.27,29.55,74.35Z"/><path class="cls-2" d="M64.17,93.44c.47-.45-.25-3.72-1-4.17C63.49,90.68,63.83,92.09,64.17,93.44Z"/><path class="cls-2" d="M54.62,71.2c-.33.4-.66.8-1,1.22a2.15,2.15,0,0,0-.19.59l.21.1,2.4-3L56,70l-1.37,1.19Z"/><path class="cls-2" d="M88.72,65.57a3.34,3.34,0,0,1-.77-.34c-.34-.26-.61-.62-1-.89-.13-.1-.37-.07-.55-.1l-.07.16c.36.26.73.49,1.07.77s.84.75,1.29,1.09a3.19,3.19,0,0,0,.73.3l.12-.23-.78-.92Z"/><path class="cls-2" d="M44.15,36.21v5.41a3.3,3.3,0,0,0,.45-.8,3.16,3.16,0,0,0,0-.92c-.07-1.16-.15-2.32-.23-3.47a1.55,1.55,0,0,0-.07-.23Z"/><path class="cls-2" d="M40.06,50.86c-.34,1.18-.67,2.35-1,3.53,0,.11,0,.25.06.37.13,0,.32,0,.37-.15a1.27,1.27,0,0,0,.16-.52c.18-1.08.35-2.16.53-3.23Z"/><path class="cls-2" d="M47.64,39.33l-.46.15.28-.81-.17-.07c-.23,1-1.22,1.68-1.16,2.81l.16.1Z"/><path class="cls-2" d="M71,83.42a3.75,3.75,0,0,1,.12.76c0,.4.31.81-.21,1.22-.23.18,0,.89,0,1.42C71.65,86,71.76,83.91,71,83.42Z"/><path class="cls-2" d="M62.1,69.71l-3.49,1.37,0,.19c.17,0,.38.15.51.09,1-.47,2.06-1,3.09-1.44Z"/><path class="cls-2" d="M57.77,70.81c-.1.26-.47.52-.08.71l2.77-1.9a7.69,7.69,0,0,0-2.7,1.2Z"/><path class="cls-2" d="M57.76,70.82,59,69.35c-.51.13-2.8,2.05-2.92,2.78l1.65-1.32Z"/><path class="cls-2" d="M81.58,53.51a4.63,4.63,0,0,0,1.17,2.61c.08.07.24.06.36.08s.08-.24,0-.31C82.63,55.09,82.1,54.3,81.58,53.51Z"/><path class="cls-2" d="M89.91,57.81l.1-.51.11,1.19c.55-1.07-.1-1.91-.61-2.8,0,.71.09,1.42.13,2.13Z"/><path class="cls-2" d="M38,43.81V47.4C38.53,46.93,38.37,44.39,38,43.81Z"/><path class="cls-2" d="M78.72,61.48c.09-.09.24-.17.27-.29a3.26,3.26,0,0,0,.1-.63l-.84-1.11c0,.76-.2,1.52.46,2Z"/><path class="cls-2" d="M57.49,69.68c-.17,0-.34,0-.43.13-.64.56-1.28,1.13-1.9,1.73-.1.09-.07.32-.1.48.15-.06.35-.08.45-.19C56.17,71.14,56.8,70.43,57.49,69.68Z"/><path class="cls-2" d="M34.19,46.63a7.89,7.89,0,0,0,0-3.42H34v3.41Z"/><path class="cls-2" d="M76.8,72.48c.18-.62.37-1.24.52-1.87,0-.06-.18-.25-.2-.24a1.93,1.93,0,0,0-.64.42,1,1,0,0,0,0,.61c0,.33.14.65.21,1Z"/><path class="cls-2" d="M32.31,59.42a2.35,2.35,0,0,0,.07.6c.27.8-.44,1.47-.26,2.25a1.14,1.14,0,0,0,.15.5c.08-.46.16-.91.24-1.44l.58,1.11.1,0c-.27-1-.53-2-.79-3Z"/><path class="cls-2" d="M77.87,71.82l.43-2.71L78.19,69c-.2.3-.55.6-.59.92a10.92,10.92,0,0,0,.08,1.89Z"/><path class="cls-2" d="M36,89.2l-2.55-2.26-.19.21,2.54,2.32Z"/><path class="cls-2" d="M61.88,71.12c.16.11.33.32.49.32.83,0,1.66-.07,2.49-.12v-.2L62,70.94Z"/><path class="cls-2" d="M63.74,70.1c-.93-.15-3.26.86-3.25,1.46Z"/><path class="cls-2" d="M40.41,48.14c.12-.18.33-.34.35-.52A31.81,31.81,0,0,0,41,44.23l-.72,3.83Z"/><path class="cls-2" d="M45.7,44.48c-.54.62-1.09,1.24-1.61,1.87-.07.09,0,.29,0,.43a1.07,1.07,0,0,0,.4,0,.68.68,0,0,0,.23-.29l1.07-2Z"/><path class="cls-2" d="M43.57,94.19l-2.79-1.35-.12.23,2.75,1.45Z"/><path class="cls-2" d="M32.59,51.22c-.11.82-.23,1.65-.31,2.48,0,.15.16.31.25.47.09-.14.25-.27.25-.41,0-.86,0-1.71,0-2.57Z"/><path class="cls-2" d="M43,36.46c.57-.32.75-1.92.32-3.06C43.21,34.51,43.12,35.44,43,36.46Z"/><path class="cls-2" d="M36.22,61.05c-.29-1.14-.58-2.28-.88-3.42l-.17,0A14,14,0,0,0,36,61.1Z"/><path class="cls-2" d="M36.29,42.41l-.48,2.86c.91-.82.53-1.87.67-2.83Z"/><path class="cls-2" d="M37.38,56.16c.11,1.32.23,2.63.34,4l.26,0-.37-3.94Z"/><path class="cls-2" d="M78.61,58.48l-.18-.17c-.06.08-.2.19-.19.25a1.29,1.29,0,0,0,.42.73l1.17.53.12-.11c-.25-.25-.48-.51-.74-.75S78.81,58.64,78.61,58.48Z"/><path class="cls-2" d="M36.22,48.26a2.19,2.19,0,0,0,.34-2.4A10.7,10.7,0,0,0,36.3,47C36.24,47.38,36.25,47.79,36.22,48.26Z"/><path class="cls-2" d="M30.17,71.9l1.69,3,.23-.13c-.36-1.12-1.26-2-1.71-3Z"/><path class="cls-2" d="M26.07,73.74l2.17,3.11.19-.14a10.12,10.12,0,0,0-2.32-3Z"/><path class="cls-2" d="M28.51,67.89,30,70.48A3.34,3.34,0,0,0,28.51,67.89Z"/><path class="cls-2" d="M26.75,55.53l.53,2.27.16,0V55.49l-.45.36-.26-.31Z"/><path class="cls-2" d="M61,75.5l.58.73.18-.13-.06-.55,1.56-.66c-.26-.23-.26-.22-1.06.13C61.78,75.19,61.38,75.33,61,75.5Z"/><path class="cls-2" d="M26.2,66.26l1.17,2.22c.3-1.09-.58-1.59-1-2.31Z"/><path class="cls-2" d="M37.67,50.89,36.7,54l.17,0A6.07,6.07,0,0,0,37.67,50.89Z"/><path class="cls-2" d="M34.68,95a2.28,2.28,0,0,0,1.7.43l.08-.26-1.89-.56,0,0,.39.3-.25.06Z"/><path class="cls-2" d="M38.32,51A4.92,4.92,0,0,0,39,47.7C38.77,48.89,38.54,49.94,38.32,51Z"/><path class="cls-2" d="M27.6,73.78l1.8,2.09A4.67,4.67,0,0,0,27.6,73.78Z"/><path class="cls-2" d="M42.74,44.47c.6-1.26.35-2.58.29-3.88C42.94,41.88,42.84,43.18,42.74,44.47Z"/><path class="cls-2" d="M91.54,53.89v2.47h.2l.12-2.48Z"/><path class="cls-2" d="M45.31,34l-.13,2.69A2.57,2.57,0,0,0,45.31,34Z"/><path class="cls-2" d="M42.15,50.75c.21-.2.44-.38.63-.6.32-.38.63-.77.93-1.18.06-.09,0-.26,0-.39-.13.06-.3.08-.38.18-.45.6-.88,1.21-1.32,1.82Z"/><path class="cls-2" d="M61.89,73.14l.33-.12c-.5-.34-.79.08-1.29.24l1.88.66.1-.21Z"/><path class="cls-2" d="M28.65,62.32l1.17,2.33.19-.1c-.1-.92-.78-1.55-1.17-2.32Z"/><path class="cls-2" d="M70.92,78.8c.16,1,.64,2,1.07,2.1C71.67,80.18,71.7,79.36,70.92,78.8Z"/><path class="cls-2" d="M93.11,55.06c.11.73.21,1.46.32,2.19l.35,0c-.12-.73-.25-1.46-.38-2.18Z"/><path class="cls-2" d="M32.88,56.94l1.44,2.8.23-.12-1.47-2.79Z"/><path class="cls-2" d="M88.67,54.9l-.81-2.38C87.52,53.27,88.09,54.81,88.67,54.9Z"/><path class="cls-2" d="M41.92,47.2l.68-2.82-.19-.05c-.27.93-.53,1.86-.79,2.79Z"/><path class="cls-2" d="M91.55,48.8l.16,2c.52-.55.5-1.13,0-2Z"/><path class="cls-2" d="M61.88,92.59c.08.82.15,1.57.22,2.34A1.94,1.94,0,0,0,61.88,92.59Z"/><path class="cls-2" d="M93.33,69.18a1.58,1.58,0,0,0,.08-1.94c-.12.73-.21,1.31-.3,1.9Z"/><path class="cls-2" d="M43,85.09l.57,2.37.3-.08L43.3,85Z"/><path class="cls-2" d="M27.54,70l-1.7-2.19-.19.15,1.66,2.22Z"/><path class="cls-2" d="M65.53,76.63c-.4-.89-1.9-1.31-2.43-.59C64.12,75.59,64.73,76.43,65.53,76.63Z"/><path class="cls-2" d="M89.88,68.85,91,68.37l-.07-.1a8.65,8.65,0,0,0-.86-.16,3.28,3.28,0,0,0-.62,0c.09.13.18.26.26.4A3,3,0,0,1,89.88,68.85Z"/><path class="cls-2" d="M28.9,61.6c.23-.75-.35-1.28-.53-1.92l-.22,0,.51,1.91Z"/><path class="cls-2" d="M27.49,50.5V52l.11,0c.13-.77.29-1.53.37-2.3,0-.37-.18-.29-.37-.11h0l-.13.9Z"/><path class="cls-2" d="M74.56,76.13l1.24,1.64.22-.16-1.18-1.69Z"/><path class="cls-2" d="M26.56,56.81c-.45.32-.43,1.18.11,2.42Z"/><path class="cls-2" d="M43.16,46.85l-.95,1.68C43.05,48.43,43.11,48.34,43.16,46.85Z"/><path class="cls-2" d="M90.3,67.26c.7-.54-.15-1.39.36-2C89.69,65.75,90.55,66.61,90.3,67.26Z"/><path class="cls-2" d="M24.89,76.5l1.85,2.71.19-.14-1.88-2.7Z"/><path class="cls-2" d="M93.63,64.67c-.08.48-.16,1-.22,1.43,0,.05.18.17.23.15S94,66.09,94,66c0-.44-.06-.87-.1-1.31Z"/><path class="cls-2" d="M28,79.13,26.61,76.9l-.16.09c.52.71.59,1.67,1.31,2.26Z"/><path class="cls-2" d="M47.44,77.63v2.51A2.44,2.44,0,0,0,47.44,77.63Z"/><path class="cls-2" d="M70,78l.52,2a2.1,2.1,0,0,0-.35-2Z"/><path class="cls-2" d="M35.71,56.67c.09-.72.18-1.45.26-2.17l-.28,0-.27,2.17Z"/><path class="cls-2" d="M44.41,32.15,43.93,34a1.65,1.65,0,0,0,.66-1.83Z"/><path class="cls-2" d="M92.4,55.62l.46,2.29.29-.06c-.17-.76-.33-1.53-.49-2.29Z"/><path class="cls-2" d="M32.75,76.67c.37-.42-.12-1.26-1-1.59Z"/><path class="cls-2" d="M65.48,54.91l-.37,0c.06.1.08.25.17.29.77.39,1.55.75,2.33,1.12h0c-.44-.29-.88-.57-1.31-.87-.17-.12-.31-.27-.47-.4l-.2.1-.11-.23Z"/><path class="cls-2" d="M88.79,55.6l.45,2.08.27,0-.41-2.09Z"/><path class="cls-2" d="M37.33,87v-.16l-1-1-.16.15a10.77,10.77,0,0,0,.59,1C36.93,87.19,37.13,87.38,37.33,87Z"/><path class="cls-2" d="M35.31,50.13l-.47,2.35.28,0a4.53,4.53,0,0,0,.18-2.4Z"/><path class="cls-2" d="M92.51,55.15l-.13-2.06-.26,0,.1,2Z"/><path class="cls-2" d="M32.87,65.62l.66,2.23.24-.06c-.22-.75-.45-1.5-.67-2.25Z"/><path class="cls-2" d="M34.24,63a2.73,2.73,0,0,0,1.25,2.21Z"/><path class="cls-2" d="M27.7,62c-.27-.62-.55-1.24-.82-1.85l-.23.09.75,1.91Z"/><path class="cls-2" d="M29.24,52.2c.15-.85.31-1.7.49-2.69A3.15,3.15,0,0,0,29.24,52.2Z"/><path class="cls-2" d="M31,87.31l1.15,1.52C32.31,88.38,31.64,87.44,31,87.31Z"/><path class="cls-2" d="M60.48,74.45c-.69-.21-.69-.21-1.3.86l.12.14Z"/><path class="cls-2" d="M47.3,36.7c-.35.75-.71,1.49-1.07,2.23A2.81,2.81,0,0,0,47.3,36.7Z"/><path class="cls-2" d="M35.48,93.29l-.07.43,1.6.6.11-.25Z"/><path class="cls-2" d="M74.07,77.4l-.41,0c0,.13,0,.3.09.39A5.23,5.23,0,0,0,74.9,79l-.84-1.57Z"/><path class="cls-2" d="M31,64.23l.69,2A1.89,1.89,0,0,0,31,64.23Z"/><path class="cls-2" d="M28.61,66.52l-1.47-2.29-.14.1,1.41,2.31Z"/><path class="cls-2" d="M30.7,70.16l.52,1.7C31.66,71.16,31.51,70.69,30.7,70.16Z"/><path class="cls-2" d="M86.42,70.32a2.48,2.48,0,0,1-.5-.31c-.32-.33-.59-.27-.87,0,.89.63,1,.66,1.36.25Z"/><path class="cls-2" d="M45.16,96.91l-1.64-.36-.07.29,1.62.41Z"/><path class="cls-2" d="M29,65.4l-.92-2-.21.08.84,2Z"/><path class="cls-2" d="M75,68.63c.6-.69.57-1.2,0-1.47Z"/><path class="cls-2" d="M32,69.13l-1-2-.2.09.9,2.07Z"/><path class="cls-2" d="M91.13,59.42c0-.64-.09-1.28-.14-1.92h-.18v1.94Z"/><path class="cls-2" d="M86,57.94l-1-1.56A1.44,1.44,0,0,0,86,57.94Z"/><path class="cls-2" d="M90.41,54.74,90.31,53l-.15-.06A6.59,6.59,0,0,0,90,54C90,54.52,90.08,54.62,90.41,54.74Z"/><path class="cls-2" d="M64.24,85.42a8.14,8.14,0,0,0-.17-1.22c-.09-.32-.21-.69-.66-.64.25.66.5,1.3.75,1.93Z"/><path class="cls-2" d="M77.55,67.48v-2h-.16v2Z"/><path class="cls-2" d="M40.82,42.37l-1.2,2,.2.13c.41-.66.82-1.31,1.22-2Z"/><path class="cls-2" d="M38.43,93.49l1.34.64C39.68,93.53,39.09,93.26,38.43,93.49Z"/><path class="cls-2" d="M25.47,74.21c0,.8.64,1.25,1.12,1.78a.86.86,0,0,0,.47.22l-1.59-2Z"/><path class="cls-2" d="M89.58,47V44.86h-.17V47Z"/><path class="cls-2" d="M35.3,50.12c.77-.58.33-1.34.39-2l-.19,0c-.06.69-.13,1.37-.19,2.06Z"/><path class="cls-2" d="M75.2,66.14c0-.36,0-.67,0-1,0-.1-.18-.18-.27-.27-.08.1-.22.22-.21.31C74.75,65.54,74.62,66,75.2,66.14Z"/><path class="cls-2" d="M57,73.66,56,74.79a1.33,1.33,0,0,0,1.25-1Z"/><path class="cls-2" d="M33.14,78.21,34,79.93l.17-.09A2.35,2.35,0,0,0,33.14,78.21Z"/><path class="cls-2" d="M33.29,70.86,33,69.42l-.3.06c.1.48.2,1,.31,1.45Z"/><path class="cls-2" d="M61.43,82.39l1,1.44.22-.15-1-1.46Z"/><path class="cls-2" d="M77.12,60.7l-.21-1.65-.28,0,.21,1.65Z"/><path class="cls-2" d="M34.18,82.26a1.74,1.74,0,0,0-1.37-1.48Z"/><path class="cls-2" d="M90.5,59.64l.43,1.53.29-.08-.41-1.53Z"/><path class="cls-2" d="M34.35,53.39c-.08.62-.14,1.11-.21,1.6A1.08,1.08,0,0,0,34.35,53.39Z"/><path class="cls-2" d="M28.53,57.22l.19-1.75A1.39,1.39,0,0,0,28.53,57.22Z"/><path class="cls-2" d="M62.21,90.9l.31,1.95C62.84,92.43,62.61,91.07,62.21,90.9Z"/><path class="cls-2" d="M72.27,84.94a1.35,1.35,0,0,0-.51-1.7Z"/><path class="cls-2" d="M45.84,62.42a1.64,1.64,0,0,0-1.55-.08l0,.17,1.55.16Z"/><path class="cls-2" d="M87.92,63.76c0-.08,0-.2,0-.24-.28-.24-.58-.47-.88-.69,0,0-.15,0-.23,0,.17.79.38.95,1.14.91Z"/><path class="cls-2" d="M30.91,78.13,32,79.71l.21-.15L31.11,78Z"/><path class="cls-2" d="M67.06,67.18a2.19,2.19,0,0,0-1.37-1.37C66.2,66.33,66.63,66.76,67.06,67.18Z"/><path class="cls-2" d="M72.56,70.52a1,1,0,0,0,0-1.54Z"/><path class="cls-2" d="M83.26,62.87l-1.72-.71c-.21-.09-.43-.14-.65-.21l0,.06,2.56,1.24c-.09-.21-.12-.3-.15-.39Z"/><path class="cls-2" d="M75.29,78.43l1.81.5.07-.27-1.8-.47Z"/><path class="cls-2" d="M39.39,42l-.5,2,.24,0c.16-.66.33-1.33.5-2Z"/><path class="cls-2" d="M92.43,64.32c.08.43.17.87.25,1.3l.23,0a1.2,1.2,0,0,0-.28-1.29Z"/><path class="cls-2" d="M74.36,70a.8.8,0,0,0,.27-1.36Z"/><path class="cls-2" d="M58.87,55.21l1.25,1c.07-.55-.48-1.07-1.19-1.12Z"/><path class="cls-2" d="M40.89,70.13l-1.08,1.3.17.15,1.13-1.25Z"/><path class="cls-2" d="M92.37,61.13a2.34,2.34,0,0,0,.15-.62,6.63,6.63,0,0,0-.21-.88H92.1v.83h0l.24.62Z"/><path class="cls-2" d="M27.89,84l-1.33-.89a2.44,2.44,0,0,0,1.19,1Z"/><path class="cls-2" d="M38,83.7l-.31-.28-.15.08L38,84.81l.29-.1-.38-1Z"/><path class="cls-2" d="M70.13,80.79l.45,1.59.21,0c-.1-.49-.18-1-.3-1.46,0-.05-.24,0-.36-.07Z"/><path class="cls-2" d="M63.18,85.76c-.21-.46-.43-.92-.64-1.37l-.25.12c.21.46.42.92.62,1.38Z"/><path class="cls-2" d="M94.56,58l-.11-1.78H94.2L94.3,58Z"/><path class="cls-2" d="M92.85,67.75l-.18-1.25-.28,0,.08,1.25Z"/><path class="cls-2" d="M59.47,88.92c.27-.87.07-1.26-.53-1.19Z"/><path class="cls-2" d="M78.47,77.25a2.71,2.71,0,0,0-.71-.34,7.08,7.08,0,0,0-1.13,0v.17l1.86.17Z"/><path class="cls-2" d="M60.29,93.75,60,92.17l-.22,0L60,93.79Z"/><path class="cls-2" d="M51.89,75.22l-.81-1-.21.15.76,1.07Z"/><path class="cls-2" d="M80.75,56.17l.71-.37L81,55.41l-.48.53Z"/><path class="cls-2" d="M33.14,89.38l1.44.93.15-.23-1.47-.89Z"/><path class="cls-2" d="M64.46,78.44l1.13,1C65.74,78.94,65.2,78.47,64.46,78.44Z"/><path class="cls-2" d="M87.32,77.8l-1.43-1.22A1.72,1.72,0,0,0,87.32,77.8Z"/><path class="cls-2" d="M86.36,78.87l1,.8C87.49,79.13,87.16,78.83,86.36,78.87Z"/><path class="cls-2" d="M84.76,57.92l-.89-1.08C83.58,57.24,84,57.83,84.76,57.92Z"/><path class="cls-2" d="M89.54,52.14c0-.7-.32-1.13-.89-1.1Z"/><path class="cls-2" d="M85.23,53.39l.43,1.2.29-.1-.43-1.2Z"/><path class="cls-2" d="M90.4,48.26l.08,1.45h.29c0-.49,0-1-.08-1.46Z"/><path class="cls-2" d="M45.3,43.74l.7-1.1-.27-.18L45,43.55Z"/><path class="cls-2" d="M91.23,65.44c0,.18-.18.38-.15.55a2.36,2.36,0,0,0,.27.64l.2-.08-.13-1.06Z"/><path class="cls-2" d="M61.12,94.52l-.19,1.2c.55-.28.48-.72.43-1.15Z"/><path class="cls-2" d="M71.6,56.31l1.06.79.17-.21-1-.82Z"/><path class="cls-2" d="M93.38,63V61.91H93.2V63Z"/><path class="cls-2" d="M48.94,92.26a8.77,8.77,0,0,0,0,.89c0,.08.15.14.24.21.06-.09.19-.19.18-.27,0-.29-.13-.58-.19-.86Z"/><path class="cls-2" d="M91.51,58.61,91.33,57l-.21,0,.12,1.62Z"/><path class="cls-2" d="M83.72,49.94,84,51.75l.21,0L84,49.92Z"/><path class="cls-2" d="M62,63c-.16-.29-.32-.58-.5-.86a.26.26,0,0,0-.21,0c0,.07-.09.2,0,.26.15.26.32.5.49.75Z"/><path class="cls-2" d="M33.9,48.29l-.21,1.47.27,0c0-.49.1-1,.14-1.47Z"/><path class="cls-2" d="M60.66,85.69,60.22,84l-.17,0c.13.56.26,1.12.38,1.68Z"/><path class="cls-2" d="M85.27,52l.31,1.15.28-.06L85.56,52Z"/><path class="cls-2" d="M36.32,91.16a3.61,3.61,0,0,0,1.13.81l.14-.22L36.44,91Z"/><path class="cls-2" d="M24.5,63.83c0,.69.36,1,.89.79Z"/><path class="cls-2" d="M36.78,51.73c-.13.57-.27,1.14-.41,1.72l.21,0a2.86,2.86,0,0,0,.26-1.71Z"/><path class="cls-2" d="M56.91,75.93A1.22,1.22,0,0,0,56,77Z"/><path class="cls-2" d="M30.1,81.63l-1-.91-.22.23.89,1Z"/><path class="cls-2" d="M56.2,75.84l.91-1-.23-.21-.88,1Z"/><path class="cls-2" d="M31.91,81.91l-1-.84-.18.19.95.87Z"/><path class="cls-2" d="M63.29,82.29l-.9-1.08-.21.18.94,1Z"/><path class="cls-2" d="M56.18,55.82l1.2.86.16-.23-1.21-.84Z"/><path class="cls-2" d="M25.58,58.9l.4,1.57.17,0-.27-1.6Z"/><path class="cls-2" d="M70,67.85,70.4,69c.4-.55-.05-.82-.22-1.19Z"/><path class="cls-2" d="M87.22,51l-.76-1.24A1,1,0,0,0,87.22,51Z"/><path class="cls-2" d="M26.8,85.43l.66,1,.22-.13-.62-1Z"/><path class="cls-2" d="M39.81,90.46,39,89.62l-.19.2.85.86Z"/><path class="cls-2" d="M47.53,89.77l.11,1,.24,0C48,90.41,48.08,90,47.53,89.77Z"/><path class="cls-2" d="M65.94,69.34l.65,1.14.24-.13-.66-1.12Z"/><path class="cls-2" d="M66,84.77l-1-1-.16.15,1,1.08Z"/><path class="cls-2" d="M59.14,73.06l1-.74c-.6-.15-.84.26-1.13.58Z"/><path class="cls-2" d="M70.43,87.93l-.59,1.21.23.12L70.69,88Z"/><path class="cls-2" d="M87.65,71.16l.71-.31,0-.18-.74-.32Z"/><path class="cls-2" d="M91.22,53.38l-.13-1.27-.26,0L91,53.41Z"/><path class="cls-2" d="M59,74.19c-.26.39-.51.79-.77,1.19l.21.14.79-1.17Z"/><path class="cls-2" d="M83.8,69.39l.83.68.19-.22-.82-.7Z"/><path class="cls-2" d="M31.16,89.54l-.89-1-.19.16.86,1Z"/><path class="cls-2" d="M49.87,87.79l-1-1.21-.14.13C49,87.12,49.13,87.73,49.87,87.79Z"/><path class="cls-2" d="M34.32,85l1.08.74C35.38,85.14,35,84.85,34.32,85Z"/><path class="cls-2" d="M69.24,57.15l1,.93.16-.16-1.12-.79Z"/><path class="cls-2" d="M70.16,71.82c0,.07-.08.15-.06.21.07.27.16.54.24.82.08,0,.21-.08.21-.1-.06-.32-.13-.64-.2-1Z"/><path class="cls-2" d="M74.73,61.44l.19,1.31.21,0L75,61.41Z"/><path class="cls-2" d="M79.82,56.69c-.18-.35-.25-.8-.7-.89l-.18.15.7.89Z"/><path class="cls-2" d="M26.9,85l-.67-1-.22.14.65,1Z"/><path class="cls-2" d="M47.79,82.27l.93,1,.18-.17-.94-1Z"/><path class="cls-2" d="M44.81,81.62c.5-.51.44-.91-.12-1.09C44.73,80.88,44.77,81.21,44.81,81.62Z"/><path class="cls-2" d="M63.78,80.06l.37.87.14,0c0-.15.19-.36.13-.45a3.55,3.55,0,0,0-.53-.57Z"/><path class="cls-2" d="M60.11,73.25l1.27-.6c-.72-.3-1,.23-1.36.39Z"/><path class="cls-2" d="M30.1,79.44l-.65-1.31-.23.11.65,1.31Z"/><path class="cls-2" d="M58.84,77.23l1.34-.43-.09-.25L58.76,77Z"/><path class="cls-2" d="M89.74,49.68l.52,1.44.19-.06L90,49.6Z"/><path class="cls-2" d="M49.08,75.2l.35,1C49.82,75.75,49.75,75.51,49.08,75.2Z"/><path class="cls-2" d="M39.36,91.16l1,.75.12-.14c-.12-.49-.57-.59-.95-.78Z"/><path class="cls-2" d="M26.26,62.65l-.53-1.08-.21.09.46,1.1Z"/><path class="cls-2" d="M56.11,64.6l-1.21.25,0,.21,1.22-.15Z"/><path class="cls-2" d="M80.43,60.58l1.19.62.12-.2-1.18-.65Z"/><path class="cls-2" d="M88.25,77.56l.72.54.19-.24-.72-.58Z"/><path class="cls-2" d="M58.87,81.23l-.79.62.15.21L59,81.5Z"/><path class="cls-2" d="M42.5,83.69v-1h-.2v1Z"/><path class="cls-2" d="M31.21,83.57c0-.59-.23-.78-1.06-.89Z"/><path class="cls-2" d="M56.3,73.14l.8-.82A.78.78,0,0,0,56.3,73.14Z"/><path class="cls-2" d="M85.79,56.44l-.1-.19-.43-.46-.2.14.57,1,.16,0Z"/><path class="cls-2" d="M34,73.56l.18.44L34,72.25l-.24,0Z"/><path class="cls-2" d="M33.27,85.08l.89,1.1.19-.17L33.42,85Z"/><path class="cls-2" d="M42.51,95.29l-1-.59-.11.18,1,.67Z"/><path class="cls-2" d="M71.25,62.48l.55,1C72,62.77,71.84,62.48,71.25,62.48Z"/><path class="cls-2" d="M30.74,62.54l-.41-1.15-.24.09c.13.38.27.76.4,1.15Z"/><path class="cls-2" d="M61,86l.45.85.18-.11c0-.37,0-.72-.44-.86Z"/><path class="cls-2" d="M76.36,56.92l-.6-1.14-.2.1L76.13,57Z"/><path class="cls-2" d="M26.53,81.44c-.17-.38-.34-.77-.5-1.16l-.23.1c.16.39.33.78.49,1.16Z"/><path class="cls-2" d="M73.07,58.35c.16.21.31.41.48.61a1.55,1.55,0,0,0,.24-.19c-.13-.22-.29-.43-.45-.65Z"/><path class="cls-2" d="M77.41,79.26l1-.47-.08-.2L77.3,79Z"/><path class="cls-2" d="M30.88,49.83l.2-1.32-.15,0c-.1.43-.2.86-.29,1.29Z"/><path class="cls-2" d="M61.45,58l.65.74c.22-.43.12-.59-.51-.86Z"/><path class="cls-2" d="M52,56.15l-1.2-.59-.11.21,1.19.63Z"/><path class="cls-2" d="M51.35,64.57H50v.15h1.39Z"/><path class="cls-2" d="M35,83.58l.91,1.2.18-.14-.91-1.21Z"/><path class="cls-2" d="M55.17,74l.76-.92c-.48-.07-.49-.06-.9.8Z"/><path class="cls-2" d="M58.5,89.67l.32,1.18.24-.06-.3-1.18Z"/><path class="cls-2" d="M59.72,60.25l-.83-.6-.17.23.82.63Z"/><path class="cls-2" d="M38,89.48l-.91-1.13-.18.15.94,1.12Z"/><path class="cls-2" d="M92.76,70l-.72-.6-.16.06a2.17,2.17,0,0,0,.24.63C92.17,70.18,92.44,70.08,92.76,70Z"/><path class="cls-2" d="M81.55,75.12l-1-.69-.15.2.94.73Z"/><path class="cls-2" d="M78.82,69.17c-.1.36-.2.71-.29,1.07l.24.07.33-1.06Z"/><path class="cls-2" d="M73.92,76.12c-.07.19-.22.4-.19.58a2.82,2.82,0,0,0,.34.7h0a1.89,1.89,0,0,0,.06-.52,4.08,4.08,0,0,0-.21-.76Z"/><path class="cls-2" d="M58.43,76.13l-.83.74.17.2.85-.72Z"/><path class="cls-2" d="M54.75,92.53l1.08,1,.17-.2-1.1-.93Z"/><path class="cls-2" d="M33.84,56.4l.43,1.27.22-.07L34,56.33Z"/><path class="cls-2" d="M44.92,87l.44,1.17.23-.08c-.14-.39-.27-.78-.4-1.17Z"/><path class="cls-2" d="M72.64,61.08l-.49-.92-.23.12.45.95Z"/><path class="cls-2" d="M33.28,89.05l1.2.11,0-.26-1.21-.07Z"/><path class="cls-2" d="M62.22,89.59l-.47-1-.19.09.42,1Z"/><path class="cls-2" d="M46.09,84.27l.29,1.17.23,0-.27-1.17Z"/><path class="cls-2" d="M51.19,92.37l1.17.49.08-.2-1.15-.52Z"/><path class="cls-2" d="M86.41,70.31,87,70.2V70l-.81-.36c.12.35.17.51.23.67Z"/><path class="cls-2" d="M48,67.66h1.38v-.15H48Z"/><path class="cls-2" d="M85.5,64.73l-1.33-.09c.45.21.86.68,1.4.16Z"/><path class="cls-2" d="M58.34,68.39l-.89-.8-.09.09.77.92Z"/><path class="cls-2" d="M57.48,83.94l-.81-.8-.12.11.72.89Z"/><path class="cls-2" d="M52.23,78.6l-.84.71C51.8,79.51,52.11,79.26,52.23,78.6Z"/><path class="cls-2" d="M29.17,87.7l-.83-.7-.16.17.79.75Z"/><path class="cls-2" d="M47.66,75.09l.42.74.24-.13L48,74.92Z"/><path class="cls-2" d="M30.94,58.05V57h-.17v1.07Z"/><path class="cls-2" d="M56.6,79.48l-1-.54-.11.18,1,.6Z"/><path class="cls-2" d="M48.27,72.41l-.73-.7-.2.21.76.68Z"/><path class="cls-2" d="M40.94,77.68l-.45,1,.26.11.4-1Z"/><path class="cls-2" d="M63.71,65.83l.61.59.18-.18-.58-.63Z"/><path class="cls-2" d="M40.43,72.29l-1.07.1,0,.29,1.05-.14Z"/><path class="cls-2" d="M87.25,58.66c.16.53.16.53,1,.07Z"/><path class="cls-2" d="M92.73,59.11l-.19-.7-.2,0,.11,1.14h.17c0-.16.07-.33.1-.5Z"/><path class="cls-2" d="M89.1,48.07l-.5-1-.22.1.5,1Z"/><path class="cls-2" d="M28.9,85.43l.55.72.23-.17-.56-.71Z"/><path class="cls-2" d="M59,95.67v-1l-.17,0c0,.34-.05.68-.07,1Z"/><path class="cls-2" d="M65.29,98.64l-.92.1,0,.26.93-.09Z"/><path class="cls-2" d="M62.94,76.73l-1.07-.12,0,.24,1.07.12Z"/><path class="cls-2" d="M58.64,55.68l-1.22-.8-.06.09,1.29.7Z"/><path class="cls-2" d="M40.21,74.15l-.87.45.11.24.87-.46Z"/><path class="cls-2" d="M41.59,50.6l-.55,1,.18.1.57-1Z"/><path class="cls-2" d="M59.93,81.58l.48,1C60.65,82,60.59,81.87,59.93,81.58Z"/><path class="cls-2" d="M29.86,57.42l.08-.76-.24,0-.09.77Z"/><path class="cls-2" d="M75.18,70.31l-.16.9.23.05.19-.87Z"/><path class="cls-2" d="M64.16,85.49l.22,1.26.26-.06-.4-1.27Z"/><path class="cls-2" d="M67.22,60.36l.49,1,.22-.11c-.17-.34-.35-.67-.52-1Z"/><path class="cls-2" d="M57.19,62.15H56.3v.17h.89Z"/><path class="cls-2" d="M51.7,59.61,51,59.39l-.09.28.71.23Z"/><path class="cls-2" d="M42.89,74.77l.86.93.17-.17-.9-.88Z"/><path class="cls-2" d="M53.84,89.41l.81.57.14-.18L54,89.19Z"/><path class="cls-2" d="M91.76,51.89,91.52,51C91.14,51.43,91.2,51.68,91.76,51.89Z"/><path class="cls-2" d="M50.62,90.19l-.76-.43-.12.2.74.46Z"/><path class="cls-2" d="M68.72,99.38H68l0,.24.73,0Z"/><path class="cls-2" d="M54.85,87l.84.76.11-.1L55,86.85Z"/><path class="cls-2" d="M78.48,75.66l.73.23.08-.26-.73-.25Z"/><path class="cls-2" d="M74.15,78.82,73.64,78l-.22.13.54.82Z"/><path class="cls-2" d="M76.82,68.93l-.17.77.23,0,.2-.75Z"/><path class="cls-2" d="M76.74,54.5c.16.42.31.84.47,1.25l.16-.06-.43-1.27Z"/><path class="cls-2" d="M30.09,58.55l.26,1,.21,0c-.07-.32-.13-.65-.2-1Z"/><path class="cls-2" d="M58.53,96.59V95.43H58.4V96.6Z"/><path class="cls-2" d="M87.76,49.48l.5,1,.19-.09-.47-1Z"/><path class="cls-2" d="M46.12,68.31h-.91v.16h.93Z"/><path class="cls-2" d="M65.78,58.23l.68.5.16-.22L66,58Z"/><path class="cls-2" d="M43.1,52.29l.49-.93c-.21.23-.43.45-.62.69C43,52.07,43.05,52.2,43.1,52.29Z"/><path class="cls-2" d="M49.26,71.11l.82.53.14-.21-.81-.53Z"/><path class="cls-2" d="M31,85.12l.81.59.15-.21L31.09,85Z"/><path class="cls-2" d="M79.1,74.93l-.81-.43-.12.19.79.46Z"/><path class="cls-2" d="M70.89,77.14l-.36-.66-.12.07.4,1.18h.11l0-.59Z"/><path class="cls-2" d="M53.79,74.42l.53-.68-.18-.14-.56.65Z"/><path class="cls-2" d="M59.21,64.66l.87.24.05-.21-.87-.24Z"/><path class="cls-2" d="M85.41,75l.73.6.16-.19-.73-.59Z"/><path class="cls-2" d="M58,91.12l.2.73.24-.07-.22-.73Z"/><path class="cls-2" d="M63.82,56.72l.57.41.16-.2L64,56.48Z"/><path class="cls-2" d="M83.49,66.94l-.8-.24-.07.23.8.24Z"/><path class="cls-2" d="M56.69,87.88l-.6-.84-.14.09.5.88Z"/><path class="cls-2" d="M68.12,97.74H69v-.19l-.93,0Z"/><path class="cls-2" d="M51.09,83.27l-.92.25.07.22.91-.27Z"/><path class="cls-2" d="M52.25,84.09l.53.65C53,84.34,52.91,84.26,52.25,84.09Z"/><path class="cls-2" d="M63.88,81.67l-.63-.54-.15.16.59.58Z"/><path class="cls-2" d="M64.06,62.73l.51.68.19-.14-.48-.71Z"/><path class="cls-2" d="M50.71,94.09l.65-.51-.15-.2-.65.52Z"/><path class="cls-2" d="M89.41,44V43h-.23l.11,1Z"/><path class="cls-2" d="M56.18,60.58l.59.54.15-.16-.57-.54Z"/><path class="cls-2" d="M87.93,63.75c.13.45.35.42.61-.06l-.62.07Z"/><path class="cls-2" d="M50.72,81.72l.77-.36-.08-.2-.82.32Z"/><path class="cls-2" d="M74.56,71.66l-.21-.81-.21.06.19.81Z"/><path class="cls-2" d="M55.27,82.45l-.84-.22-.06.18.85.27Z"/><path class="cls-2" d="M88.15,45.51l.21.82.21,0-.15-.83Z"/><path class="cls-2" d="M89.2,59.38a3.45,3.45,0,0,0,.44.24s.17-.17.15-.2a1.75,1.75,0,0,0-.28-.33Z"/><path class="cls-2" d="M81.78,65.44l-.76-.2-.07.24.77.23Z"/><path class="cls-2" d="M62.23,88.06l.42.94.2-.09c-.13-.31-.27-.62-.4-.94Z"/><path class="cls-2" d="M85.5,61.14l.15.54.3-.11-.23-.51Z"/><path class="cls-2" d="M40.16,76.35l-.62.34.11.21.62-.33Z"/><path class="cls-2" d="M28.29,53.62l.17-.95-.21,0c0,.32-.08.63-.13,1Z"/><path class="cls-2" d="M80.15,72.73l-.63-.54-.14.17.65.52Z"/><path class="cls-2" d="M47.26,89.44,47,88.72l-.21.07.22.75Z"/><path class="cls-2" d="M58.22,72.24l-.7.64.21.23.71-.64Z"/><path class="cls-2" d="M49.18,57.81l-1-.3,0,.2,1,.29Z"/><path class="cls-2" d="M54.81,83.64l-.63-.3-.09.17.62.34Z"/><path class="cls-2" d="M62.56,77.88l.84.21.05-.19-.81-.27Z"/><path class="cls-2" d="M36,82l-.65-.9-.23.2.82.75Z"/><path class="cls-2" d="M85.06,67.56l.64.12,0-.23-.63-.13Z"/><path class="cls-2" d="M29.5,53.41l-.1,1h.29l-.2-1Z"/><path class="cls-2" d="M85.07,68.85a2,2,0,0,0-.45.14s0,.2,0,.31l.49-.24Z"/><path class="cls-2" d="M33.71,62l.28.85.19,0-.29-.87Z"/><path class="cls-2" d="M54.59,76.29l-.68.52.15.2.67-.53Z"/><path class="cls-2" d="M69,59.75l.6.51.11-.12-.51-.6Z"/><path class="cls-2" d="M71.85,65.76l.12.62.23,0,0-.64Z"/><path class="cls-2" d="M27.72,53.7l.19-.94-.2,0-.15,1Z"/><path class="cls-2" d="M51.65,89.21l.56.71.17-.14-.57-.68Z"/><path class="cls-2" d="M40.68,66.55l.69-.22,0-.2-.71.19Z"/><path class="cls-2" d="M72.88,53.32l1,.48.1-.19-1-.38Z"/><path class="cls-2" d="M82.8,64.22h.6V64l-.61,0Z"/><path class="cls-2" d="M53,58.24l.69.23.07-.19L53.06,58Z"/><path class="cls-2" d="M54.86,78.09l-.76,0v.18h.77Z"/><path class="cls-2" d="M53,75.32l.3-.63-.19-.1-.34.62Z"/><path class="cls-2" d="M84.3,77.83l.56,0,0-.24-.56,0Z"/><path class="cls-2" d="M60.86,78.64h-.92v.14h.92Z"/><path class="cls-2" d="M54.83,74.68,54.2,75l.12.21.62-.37Z"/><path class="cls-2" d="M89.24,53.08l-.54-.43-.12.14.55.48Z"/><path class="cls-2" d="M53.5,91.67l-.72-.57-.11.14.69.59Z"/><path class="cls-2" d="M48.57,64l.85-.2-.05-.19-.86.21Z"/><path class="cls-2" d="M91.53,68.71a2.07,2.07,0,0,0,.42-.14s0-.17-.06-.27l-.44.16Z"/><path class="cls-2" d="M57.75,93l-.17-.66-.15,0,.08.69Z"/><path class="cls-2" d="M84.16,74.11l-.29-.17-.76-.1A.75.75,0,0,0,84.16,74.11Z"/><path class="cls-2" d="M65.16,74l0-.18-1-.3-.05.15Z"/><path class="cls-2" d="M71.19,55.57,70.25,55l-.08.15,1,.52Z"/><path class="cls-2" d="M59,85.74l.27.58.21-.09-.28-.58Z"/><path class="cls-2" d="M27,79.51l.49.59.11-.07-.37-.67Z"/><path class="cls-2" d="M44.62,65.74l-.8.1,0,.19.78,0Z"/><path class="cls-2" d="M65.81,61.85l.4.52.16-.11L66,61.72Z"/><path class="cls-2" d="M40.94,55.75l-.8.65.13.16.75-.72Z"/><path class="cls-2" d="M56.79,95.21l0-.8h-.21l0,.78Z"/><path class="cls-2" d="M50,80.16l.34-.5-.16-.13-.41.48Z"/><path class="cls-2" d="M60.74,80.24l-.88.11,0,.2.86-.11Z"/><path class="cls-2" d="M56.4,80.77l-.64-.41-.11.17.62.42Z"/><path class="cls-2" d="M44.1,70.86l-.39.47.19.16.38-.49Z"/><path class="cls-2" d="M67.07,54.08l1,.46h0l-1-.54Z"/><path class="cls-2" d="M58.42,83.66l.85.19,0-.16-.85-.23Z"/><path class="cls-2" d="M33.29,72.32l-.14-.39H33l0,.48.31-.09Z"/><path class="cls-2" d="M56.78,84.93l.42.58.14-.09-.4-.6Z"/><path class="cls-2" d="M89.86,69.48c-.14.09-.29.18-.42.28a.7.7,0,0,0,.1.19l.45-.24Z"/><path class="cls-2" d="M81.34,57.85c.12.09.2.2.26.18s.18-.12.27-.19c-.07-.08-.15-.21-.23-.21S81.47,57.75,81.34,57.85Z"/><path class="cls-2" d="M43.66,67.17l-.56.17.06.23.57-.16Z"/><path class="cls-2" d="M86.09,62.41l.43-.14a1,1,0,0,0-.07-.2c-.15,0-.29.06-.43.09Z"/><path class="cls-2" d="M46.46,35.7l.26-.75-.16-.05-.26.74Z"/><path class="cls-2" d="M43.6,74.74l.37.52.16-.13-.41-.5Z"/><path class="cls-2" d="M89.55,72.24l.18-.18-.57-.21-.08.24Z"/><path class="cls-2" d="M56.69,99.29l.61-.07v-.17l-.62,0Z"/><path class="cls-2" d="M62.91,99.15l.46-.2-.07-.22-.51.14Z"/><path class="cls-2" d="M49.13,60.87l.62.14,0-.18-.6-.18Z"/><path class="cls-2" d="M88.19,64.26l-.5,0,0,.21.51.09Z"/><path class="cls-2" d="M62.91,68.75l.56-.41-.12-.16-.56.39Z"/><path class="cls-2" d="M28.11,81.77l.54.41-.3-.68Z"/><path class="cls-2" d="M42,79.24l.13,1h.11l-.1-1Z"/><path class="cls-2" d="M67.8,55.52l.06,0,.59.27,0-.22Z"/><path class="cls-2" d="M53,61.33l.57.24.07-.18-.56-.26Z"/><path class="cls-2" d="M84.47,76l.37.32.14-.14-.33-.36Z"/><path class="cls-2" d="M80.52,63.32l.67-.08,0-.22-.66.09Z"/><path class="cls-2" d="M54,95.2l.46.22.09-.18L54.13,95Z"/><path class="cls-2" d="M51.48,55.39l.75,0v-.13l-.75-.07Z"/><path class="cls-2" d="M82.7,63.34c-.19-.07-.29-.13-.37-.11a.4.4,0,0,0-.25.19s.1.21.14.21A2.43,2.43,0,0,0,82.7,63.34Z"/><path class="cls-2" d="M90.43,80.43l.33.22.12-.26-.37-.13Z"/><path class="cls-2" d="M50.57,89.74l.51.62.13-.1-.52-.6Z"/><path class="cls-2" d="M86.79,52.29l.36.51.13-.08-.3-.53Z"/><path class="cls-2" d="M60.91,66.75l-.52.08,0,.2.5-.06Z"/><path class="cls-2" d="M36.84,51.78l.26-.64-.19-.06c0,.22-.08.43-.13.65Z"/><path class="cls-2" d="M65.4,97h.69V96.9h-.7Z"/><path class="cls-2" d="M49.55,69.13l-.57,0,0,.2.55,0Z"/><path class="cls-2" d="M85.22,62.28c.1.09.18.2.24.2a.26.26,0,0,0,.18-.2c0-.06-.1-.19-.16-.2S85.33,62.19,85.22,62.28Z"/><path class="cls-2" d="M30.53,86.71l-.5-.15-.05.2.51.11Z"/><path class="cls-2" d="M66.85,97.49l.44-.07,0-.17-.44,0Z"/><path class="cls-2" d="M56.57,97.85l.41-.17-.07-.17-.42.15Z"/><path class="cls-2" d="M53.14,87.4l-.49-.33-.1.14.47.37Z"/><path class="cls-2" d="M45.9,33.71l-.32.81.21,0c0-.29.07-.58.1-.87Z"/><path class="cls-2" d="M36.93,41.41l-.27.86.17,0c.05-.3.09-.59.13-.88Z"/><path class="cls-2" d="M88.12,48l-.3-.32-.13.11.27.34Z"/><path class="cls-2" d="M82.52,58.53h-.39l.05.28.37-.09Z"/><path class="cls-2" d="M85.29,59.54l-.4,0v.28l.4,0Z"/><path class="cls-2" d="M67.81,64.28l.35.29.14-.15L68,64.08Z"/><path class="cls-2" d="M73.47,71.8a1.93,1.93,0,0,0,0,.34.93.93,0,0,0,.2,0V71.8Z"/><path class="cls-2" d="M34.45,83.23l-.52-.34-.09.14.5.38Z"/><path class="cls-2" d="M39.59,39.27c.08-.3.17-.59.25-.89h0l-.25.88Z"/><path class="cls-2" d="M42.51,34.61l.25-.76,0,0a.2.2,0,0,0-.11,0h0l-.16.74Z"/><path class="cls-2" d="M29.49,53.42v-.76h-.14l.15.74Z"/><path class="cls-2" d="M42.47,34.58l-.38.66.16.07.26-.7Z"/><path class="cls-2" d="M84.66,66.93l-.33.22.07.14.36-.19Z"/><path class="cls-2" d="M45.5,74.76l0,.45h.17v-.45Z"/><path class="cls-2" d="M55.7,98.88l.35-.24c-.06-.07-.09-.13-.1-.13l-.37.19Z"/><path class="cls-2" d="M62.53,60.64l.43.26.1-.15-.38-.31Z"/><path class="cls-2" d="M93,69.59c0-.13.11-.22.09-.28a.32.32,0,0,0-.22-.13s-.15.15-.13.19S92.89,69.49,93,69.59Z"/><path class="cls-2" d="M36.81,81.83v-.2l-.37-.47h0C36.34,81.53,36.41,81.65,36.81,81.83Z"/><path class="cls-2" d="M52.8,69.81l.64.16,0-.14-.62-.2Z"/><path class="cls-2" d="M40.1,38.88l-.27.6.16,0c0-.21.06-.43.1-.64Z"/><path class="cls-2" d="M45.07,32.4l-.17.48.14,0,.11-.5Z"/><path class="cls-2" d="M56.88,54.66l.48.31.06-.09-.55-.21Z"/><path class="cls-2" d="M58.23,54.84l.64.37.06-.07-.61-.4Z"/><path class="cls-2" d="M33.82,55.84l-.18-.42-.16.07.19.41Z"/><path class="cls-2" d="M89.45,70.78,89.2,71s.08.14.09.13a1.64,1.64,0,0,0,.29-.16Z"/><path class="cls-2" d="M28,51.93V51.5h-.06v.44Z"/><path class="cls-2" d="M53.2,85.91l-.39-.24-.09.15.4.22Z"/><path class="cls-2" d="M61.85,78.53l.47.09,0-.17-.48-.09Z"/><path class="cls-2" d="M66.13,78.85l-.37-.49-.15.12.47.43Z"/><path class="cls-2" d="M51.75,86.64l-.38-.16-.06.13.37.19Z"/><path class="cls-2" d="M47.35,61.36l.41-.12,0-.14-.42.08Z"/><path class="cls-2" d="M44,61.36h-.47v.11l.5,0Z"/><path class="cls-2" d="M44.55,78.35l-.13-.44-.17,0,.06.45Z"/><path class="cls-2" d="M25.36,82l.1.39Z"/><path class="cls-2" d="M69.61,66.67v-.33l-.14,0,0,.35Z"/><path class="cls-2" d="M80.66,58.36l.33.06a1.83,1.83,0,0,0-.13-.24s-.11,0-.16,0Z"/><path class="cls-2" d="M36.81,40l-.24.76h0c.09-.25.18-.49.28-.74Z"/><path class="cls-2" d="M61.93,55.52l.33.16.05-.11L62,55.43Z"/><path class="cls-2" d="M77.05,51.91l.21.44.23-.26-.41-.21Z"/><path class="cls-2" d="M54.29,67.29l-.44-.1,0,.17.48.08Z"/><path class="cls-2" d="M57.23,58.44l.35.18.07-.12-.31-.22Z"/><path class="cls-2" d="M65.05,69.24l-.32.21.06.11.35-.17Z"/><path class="cls-2" d="M26.12,89.09l-.29-.44-.15.13.37.37Z"/><path class="cls-2" d="M71.76,69.93l-.07.31a1,1,0,0,0,.22-.13s0-.11,0-.16Z"/><path class="cls-2" d="M61.93,54.63l.37.21.06-.1L62,54.52Z"/><path class="cls-2" d="M45.46,72.21l.26.12a.44.44,0,0,0,.07-.19s-.09-.1-.12-.09A1,1,0,0,0,45.46,72.21Z"/><path class="cls-2" d="M33.3,72.31v.43l.17,0-.18-.38Z"/><path class="cls-2" d="M33.57,73.44l-.21-.4-.16.11.3.35Z"/><path class="cls-2" d="M26.11,73.7,26,73.29l-.18.06.22.39Z"/><path class="cls-2" d="M96.26,73.71l.16.36.12-.11-.29-.24Z"/><path class="cls-2" d="M80.89,62l-.47-.22,0,.12.46.16Z"/><path class="cls-2" d="M71.65,63.75h-.56l0,.13.54-.13Z"/><path class="cls-2" d="M61,55.51l.29.15,0-.08-.29-.14Z"/><path class="cls-2" d="M58.65,55.67l.25.23.06-.09-.32-.13Z"/><path class="cls-2" d="M84.51,50a1.55,1.55,0,0,0,.12.22s.08,0,.13-.06l-.13-.23Z"/><path class="cls-2" d="M67.61,56.3l.41.27.06-.16-.48-.1Z"/><path class="cls-2" d="M49,45.4l-.14.25.06.05.18-.21Z"/><path class="cls-2" d="M42.5,77l-.16-.23-.07,0,.11.27Z"/><path class="cls-2" d="M74.89,58.23a1.29,1.29,0,0,0,.26.08s.12-.06.12-.08a1.57,1.57,0,0,0-.08-.29Z"/><path class="cls-2" d="M36.6,63.21v.29h.06l0-.29Z"/><path class="cls-2" d="M33.5,93.2l.42.13,0-.16-.4-.07Z"/><path class="cls-2" d="M66.48,79l-.35-.18,0,.06.38.28V79Z"/><path class="cls-2" d="M36.21,80.81l-.35-.19,0,.13.37,0Z"/><path class="cls-2" d="M64.75,74.68l-.48-.11,0,.16.43,0Z"/><path class="cls-2" d="M65.49,98.8l.4.08a.88.88,0,0,0-.12-.19A1.52,1.52,0,0,0,65.49,98.8Z"/><path class="cls-2" d="M60.67,98.43l.36,0v-.09l-.35,0Z"/><path class="cls-2" d="M26.55,83.87l.24.32.13-.08-.28-.34Z"/><path class="cls-2" d="M64.4,55.14l.31.15,0-.1-.32-.12Z"/><path class="cls-2" d="M26,85a1.37,1.37,0,0,0,.13.2s.06,0,.09,0L26.05,85Z"/><path class="cls-2" d="M73.27,54.44l.29.22.06-.09-.31-.18Z"/><path class="cls-2" d="M67,71.28c.08,0,.14.08.18.07s0-.08.08-.13-.08,0-.1,0A.93.93,0,0,0,67,71.28Z"/><path class="cls-2" d="M35,78.56l-.13-.19-.07,0,.08.21Z"/><path class="cls-2" d="M25.18,78.29l.18.27.07,0-.19-.27Z"/><path class="cls-2" d="M34,70.9l-.19.27.08.06.19-.25Z"/><path class="cls-2" d="M77.08,51.88l-.34-.3-.09.11.4.22Z"/><path class="cls-2" d="M64,55.63l.14.1s.05-.06,0-.08a.14.14,0,0,0-.08-.07S64,55.61,64,55.63Z"/><path class="cls-2" d="M40.24,50l-.16.32.11,0,0-.36Z"/><path class="cls-2" d="M49.68,55.8l.25,0a.5.5,0,0,0-.14-.1s-.06,0-.09,0Z"/><path class="cls-2" d="M40.23,50l.13-.29-.1,0c0,.1,0,.21,0,.32Z"/><path class="cls-2" d="M44.35,47.87l.06.11a.52.52,0,0,0,.11-.1s0-.06,0-.09Z"/><path class="cls-2" d="M27.47,87.4l.14.07s.05-.11,0-.11a1.09,1.09,0,0,0-.15-.08Z"/><path class="cls-2" d="M35.54,80.07l-.15-.23-.08,0,.12.25Z"/><path class="cls-2" d="M35.13,42.76l-.12.42.14,0c0-.12.05-.25.07-.37Z"/><path class="cls-2" d="M35.27,42.27l-.14.49.09.08c0-.17.08-.34.11-.51Z"/><path class="cls-2" d="M37.69,40.9l-.15.37.14,0,0-.38Z"/><path class="cls-2" d="M36.57,40.78l-.14.3.1,0,0-.33Z"/><path class="cls-2" d="M39.76,39.93v.26h.05v-.26Z"/><path class="cls-2" d="M68.11,54.54l.17.38.18-.22-.35-.16Z"/><path class="cls-2" d="M25.47,74.22,25.25,74l-.05.16h.27Z"/><path class="cls-2" d="M31.66,39.55l-.06.19h0a1,1,0,0,0,.1-.17Z"/><path class="cls-2" d="M38.47,39.53l-.16.36.15,0v-.4Z"/><path class="cls-2" d="M38.46,39.53l.15-.32-.12,0,0,.35Z"/><path class="cls-2" d="M46.15,38.85l0-.2h0a1.49,1.49,0,0,0,0,.21Z"/><path class="cls-2" d="M45.9,33l0-.28-.08,0,.11.25Z"/><path class="cls-2" d="M25.71,81.72l-.06.06s0,0,0,0l.1,0Z"/><path class="cls-2" d="M68.62,74.35l.22.26.09-.13-.32-.12Z"/><path class="cls-2" d="M35.91,82.07l.07.23.08,0L36,82Z"/><path class="cls-2" d="M47.54,23.5l-.08-.23-.08.06.17.16Z"/><path class="cls-2" d="M40.57,54.27l.1-.19-.05,0-.14.16Z"/><path class="cls-2" d="M34.21,97.15l-.42-.09,0,.1.35.09Z"/><path class="cls-2" d="M36.56,92.69l-.23-.11s0,.1,0,.1l.22.1Z"/><path class="cls-2" d="M36.59,93.21l.09.05h0s0-.07,0-.07Z"/><path class="cls-2" d="M41.87,55.43l.32-.63-.32.33v.29Z"/><path class="cls-2" d="M85,87.83l-1.21-2-.15.1A2.89,2.89,0,0,0,85,87.83Z"/><path class="cls-2" d="M85.87,88.28l.86-1.71-.28-.14-.85,1.71Z"/><path class="cls-2" d="M88.27,86,87.2,87.44A1.3,1.3,0,0,0,88.27,86Z"/><path class="cls-2" d="M85.21,85.15l-.5-1.21-.23.09.44,1.23Z"/><path class="cls-2" d="M83.54,84.78,83.33,84l-.26.07.21.75Z"/><path class="cls-2" d="M82.35,83.22v-.4h-.07l0,.39Z"/><path class="cls-2" d="M82.63,83.19l-.13-.64Z"/><path class="cls-2" d="M75.31,95.18l-1.39.12c.71.46,1.31.35,1.38-.13Z"/><path class="cls-2" d="M73,95.2l-.84.23,0,.23.88-.17Z"/><path class="cls-2" d="M90.52,75.23a2.17,2.17,0,0,0,.35-.39s-.14-.15-.21-.24l-.34.45Z"/><path class="cls-2" d="M90.55,75.81l-.29.48.2.13.33-.44Z"/><path class="cls-2" d="M74.71,94c.7.43.77.42,1.11-.1Z"/></g></g></svg>